<svg width="16" height="16" viewBox="0 0 16 16" fill="none" xmlns="http://www.w3.org/2000/svg">
<g clip-path="url(#clip0_333_14401)">
<path d="M13.6847 2.81131L9.66668 0.491305C9.15962 0.19972 8.58494 0.0462646 8.00002 0.0462646C7.41509 0.0462646 6.84041 0.19972 6.33335 0.491305L2.31535 2.81131C1.80926 3.10458 1.389 3.52552 1.09653 4.03207C0.804064 4.53862 0.649639 5.11305 0.648682 5.69797V10.338C0.649657 10.923 0.804083 11.4975 1.09654 12.0041C1.389 12.5108 1.80926 12.9319 2.31535 13.2253L6.33335 15.5446C6.84034 15.8364 7.41505 15.99 8.00002 15.99C8.58498 15.99 9.15969 15.8364 9.66668 15.5446L13.6847 13.2253C14.1908 12.9319 14.611 12.5108 14.9035 12.0041C15.1959 11.4975 15.3504 10.923 15.3513 10.338V5.69797C15.3504 5.11305 15.196 4.53862 14.9035 4.03207C14.611 3.52552 14.1908 3.10458 13.6847 2.81131ZM7.00002 1.64664C7.30405 1.4711 7.64894 1.37869 8.00002 1.37869C8.35109 1.37869 8.69598 1.4711 9.00002 1.64664L13.018 3.96597C13.1199 4.03037 13.2156 4.10402 13.304 4.18597L9.17535 6.56931C8.81791 6.77536 8.41259 6.88382 8.00002 6.88382C7.58744 6.88382 7.18212 6.77536 6.82468 6.56931L2.69602 4.18597C2.78439 4.10402 2.88013 4.03037 2.98202 3.96597L7.00002 1.64664ZM2.98202 12.07C2.67815 11.8939 2.42585 11.6411 2.25036 11.337C2.07486 11.0328 1.98233 10.6878 1.98202 10.3366V5.69797C1.98664 5.57787 2.00249 5.45846 2.02935 5.34131L6.15802 7.72464C6.52264 7.93205 6.92021 8.07525 7.33335 8.14797V14.5273C7.21819 14.492 7.10659 14.4461 7.00002 14.39L2.98202 12.07ZM14.018 10.3366C14.0177 10.6878 13.9252 11.0328 13.7497 11.337C13.5742 11.6411 13.3219 11.8939 13.018 12.07L9.00002 14.39C8.89344 14.4461 8.78184 14.492 8.66668 14.5273V8.14797C9.07982 8.07525 9.47739 7.93205 9.84202 7.72464L13.9707 5.34131C13.9975 5.45846 14.0134 5.57787 14.018 5.69797V10.3366Z" fill="#2A3855"/>
</g>
<defs>
<clipPath id="clip0_333_14401">
<rect width="16" height="16" fill="white"/>
</clipPath>
</defs>
</svg>
