<svg width="16" height="16" viewBox="0 0 16 16" fill="none" xmlns="http://www.w3.org/2000/svg">
<g clip-path="url(#clip0_411_6782)">
<path d="M4.66667 4.00008H15.3333C15.5101 4.00008 15.6797 3.92984 15.8047 3.80482C15.9298 3.67979 16 3.51023 16 3.33341C16 3.1566 15.9298 2.98703 15.8047 2.86201C15.6797 2.73699 15.5101 2.66675 15.3333 2.66675H4.66667C4.48986 2.66675 4.32029 2.73699 4.19526 2.86201C4.07024 2.98703 4 3.1566 4 3.33341C4 3.51023 4.07024 3.67979 4.19526 3.80482C4.32029 3.92984 4.48986 4.00008 4.66667 4.00008Z" fill="white"/>
<path d="M15.3333 7.33325H4.66667C4.48986 7.33325 4.32029 7.40349 4.19526 7.52851C4.07024 7.65354 4 7.82311 4 7.99992C4 8.17673 4.07024 8.3463 4.19526 8.47132C4.32029 8.59635 4.48986 8.66659 4.66667 8.66659H15.3333C15.5101 8.66659 15.6797 8.59635 15.8047 8.47132C15.9298 8.3463 16 8.17673 16 7.99992C16 7.82311 15.9298 7.65354 15.8047 7.52851C15.6797 7.40349 15.5101 7.33325 15.3333 7.33325Z" fill="white"/>
<path d="M15.3333 12H4.66667C4.48986 12 4.32029 12.0702 4.19526 12.1953C4.07024 12.3203 4 12.4899 4 12.6667C4 12.8435 4.07024 13.013 4.19526 13.1381C4.32029 13.2631 4.48986 13.3333 4.66667 13.3333H15.3333C15.5101 13.3333 15.6797 13.2631 15.8047 13.1381C15.9298 13.013 16 12.8435 16 12.6667C16 12.4899 15.9298 12.3203 15.8047 12.1953C15.6797 12.0702 15.5101 12 15.3333 12Z" fill="white"/>
<path d="M1.33333 4.66667C2.06971 4.66667 2.66667 4.06971 2.66667 3.33333C2.66667 2.59695 2.06971 2 1.33333 2C0.596954 2 0 2.59695 0 3.33333C0 4.06971 0.596954 4.66667 1.33333 4.66667Z" fill="white"/>
<path d="M1.33333 9.33341C2.06971 9.33341 2.66667 8.73646 2.66667 8.00008C2.66667 7.2637 2.06971 6.66675 1.33333 6.66675C0.596954 6.66675 0 7.2637 0 8.00008C0 8.73646 0.596954 9.33341 1.33333 9.33341Z" fill="white"/>
<path d="M1.33333 13.9999C2.06971 13.9999 2.66667 13.403 2.66667 12.6666C2.66667 11.9302 2.06971 11.3333 1.33333 11.3333C0.596954 11.3333 0 11.9302 0 12.6666C0 13.403 0.596954 13.9999 1.33333 13.9999Z" fill="white"/>
</g>
<defs>
<clipPath id="clip0_411_6782">
<rect width="16" height="16" fill="white"/>
</clipPath>
</defs>
</svg>
