<svg width="24" height="24" viewBox="0 0 24 24" fill="none" xmlns="http://www.w3.org/2000/svg">
<g clip-path="url(#clip0_237_8510)">
<path d="M22.555 13.6619L20.655 6.82593C20.0981 4.82327 18.8877 3.06422 17.2163 1.8284C15.5449 0.592587 13.5084 -0.049079 11.4304 0.00540109C9.3525 0.0598812 7.35239 0.807381 5.74805 2.12908C4.1437 3.45078 3.02719 5.27084 2.57598 7.29993L1.10498 13.9149C0.942497 14.6459 0.946254 15.404 1.11597 16.1333C1.2857 16.8625 1.61705 17.5444 2.08556 18.1285C2.55408 18.7126 3.1478 19.184 3.82289 19.5079C4.49798 19.8318 5.23721 20 5.98598 19.9999H7.09998C7.3295 21.1302 7.94271 22.1464 8.83572 22.8763C9.72874 23.6062 10.8466 24.0049 12 24.0049C13.1533 24.0049 14.2712 23.6062 15.1642 22.8763C16.0573 22.1464 16.6705 21.1302 16.9 19.9999H17.738C18.5088 20 19.2692 19.8218 19.9597 19.4794C20.6503 19.1369 21.2523 18.6394 21.7188 18.0258C22.1853 17.4122 22.5036 16.699 22.6488 15.942C22.794 15.185 22.7612 14.4046 22.555 13.6619ZM12 21.9999C11.3817 21.9974 10.7794 21.8039 10.2753 21.4458C9.77121 21.0878 9.39007 20.5828 9.18398 19.9999H14.816C14.6099 20.5828 14.2288 21.0878 13.7247 21.4458C13.2206 21.8039 12.6182 21.9974 12 21.9999ZM20.126 16.8149C19.8473 17.1846 19.4863 17.4842 19.0716 17.6899C18.6569 17.8956 18.1999 18.0018 17.737 17.9999H5.98598C5.53677 17.9999 5.0933 17.8989 4.68832 17.7045C4.28334 17.5101 3.92719 17.2273 3.64614 16.8768C3.3651 16.5264 3.16634 16.1173 3.06454 15.6798C2.96274 15.2423 2.9605 14.7874 3.05798 14.3489L4.52798 7.73293C4.88233 6.13914 5.75929 4.70954 7.01944 3.67138C8.27959 2.63323 9.85061 2.04611 11.4828 2.00335C13.1149 1.96059 14.7145 2.46465 16.0273 3.4354C17.3401 4.40616 18.2907 5.78788 18.728 7.36093L20.628 14.1969C20.7535 14.6423 20.7735 15.1108 20.6864 15.5653C20.5992 16.0197 20.4074 16.4476 20.126 16.8149Z" fill="#2A3855"/>
</g>
<defs>
<clipPath id="clip0_237_8510">
<rect width="24" height="24" fill="white"/>
</clipPath>
</defs>
</svg>
