<svg width="164" height="156" viewBox="0 0 164 156" fill="none" xmlns="http://www.w3.org/2000/svg">
<g clip-path="url(#clip0_237_5095)">
<path d="M329.045 115.916V-26.1684C329.045 -27.0731 329.4 -28.5431 329.045 -29.3993C327.832 -32.3071 321.413 -33.7503 317.835 -34.6172C307.851 -37.0296 296.473 -36.9435 286.703 -33.9172C277.744 -31.144 270.997 -25.9045 265.509 -19.6043C259.873 -13.1263 256.959 -5.40446 251.457 1.11658C245.889 7.72377 238.833 10.1416 229.378 11.6009C203.098 15.6556 178.835 1.58506 152.367 3.11435C149.807 3.25974 147.254 3.57745 144.775 4.11055C129.511 7.40068 121.912 18.4611 115.989 29.2954C109.08 41.9498 102.192 52.951 90.6936 63.3922C83.0347 70.3441 69.2044 72.9503 64.869 81.9969C61.9207 88.1463 62.4635 95.1305 63.6897 101.517C64.6345 106.449 68.0184 111.01 68.6013 115.911C70.3234 130.45 42.569 135.35 25.4152 134.488C15.9135 134.009 1.97604 133.584 -6.09832 138.188C-17.5566 144.725 -23.0109 157.46 -33.5445 165.042C-45.13 173.383 -66.9409 181.552 -82.8283 178.369V186.985H329.045V115.905V115.916Z" fill="#F3F5FF"/>
<g clip-path="url(#clip1_237_5095)">
<path d="M130.175 37.0903H116.084V57.2324H130.175V37.0903Z" fill="#8C9EF3"/>
<path d="M131.46 34.8691H114.798V38.1981H131.46V34.8691Z" fill="#AEC2FD"/>
<path fill-rule="evenodd" clip-rule="evenodd" d="M46.9017 70.781C47.2709 73.6222 47.7643 76.6785 49.0338 78.1257C50.6576 79.6226 50.1175 82.3202 48.0002 83.0613C46.455 83.6022 44.0426 83.6655 43.7475 82.8361C43.4524 82.0067 44.1349 81.0133 44.1087 80.8877L42.1886 80.916L46.9029 70.7821L46.9017 70.781Z" fill="#355298"/>
<path fill-rule="evenodd" clip-rule="evenodd" d="M74.73 110.414L70.7553 126.314L68.727 135.78L64.2224 158.836C64.2224 158.836 63.2698 159.264 61.7462 159.177C60.2227 159.09 59.4535 158.868 59.4535 158.868C59.4205 152.06 59.2473 142.906 59.188 134.677C59.1356 127.44 58.9464 121.006 58.9179 115.517C58.9054 113.141 61.6471 106.422 61.6129 106.508L74.73 110.413V110.414Z" fill="#355298"/>
<path fill-rule="evenodd" clip-rule="evenodd" d="M80.0653 109.559C81.2094 125.726 81.419 140.537 80.1074 158.824C80.1074 158.824 78.3264 159.203 76.8028 159.116C75.2793 159.029 75.5573 158.856 75.5573 158.856L71.9917 133.757C71.9917 133.757 71.1849 128.041 69.2979 123.587C67.935 120.37 66.2633 119.443 66.5106 115.706C66.7659 111.835 66.4354 108.835 66.9767 107.498C67.5168 106.16 70.2175 106.697 70.2175 106.697L80.0664 109.559H80.0653Z" fill="#355298"/>
<path fill-rule="evenodd" clip-rule="evenodd" d="M72.7893 139.648L71.9905 133.982C71.9905 133.982 71.5506 130.841 70.5615 127.39L71.317 122.018L72.8862 135.487L72.7893 139.648Z" fill="#1D3975"/>
<path fill-rule="evenodd" clip-rule="evenodd" d="M73.4025 89.6671C75.1232 93.4158 76.404 97.1577 80.3468 100.162C86.7008 105.005 93.097 106.867 93.9903 106.366C94.7572 105.936 96.8813 104.473 94.241 102.721C92.5021 101.328 85.7253 95.5838 83.9716 94.4002C83.3506 93.9815 79.36 82.4141 73.9438 80.452C73.3968 80.1024 71.8038 87.2762 73.4025 89.666" fill="#AEC2FD"/>
<path fill-rule="evenodd" clip-rule="evenodd" d="M75.2472 93.7054C76.4004 96.0318 77.8328 98.2473 80.3455 100.163C83.4587 102.536 87.2829 104.479 90.3289 105.73C89.3318 104.774 87.953 104.222 84.1948 100.811C80.4355 97.401 77.6995 93.3569 77.6995 93.3569L75.2461 93.7066L75.2472 93.7054Z" fill="#9BB3FB"/>
<path fill-rule="evenodd" clip-rule="evenodd" d="M57.2874 93.7295C57.9529 98.105 58.8839 106.84 58.5055 113.658C67.387 115.173 75.2976 114.865 80.6021 113.188C79.6939 106.159 81.1103 82.0127 73.0322 80.1128C70.1128 79.3004 67.8451 79.374 64.7501 79.6874C59.2565 80.243 44.8187 89.3087 42.1773 93.3312C40.3255 96.152 39.0436 100.207 38.688 103.155C38.557 104.245 41.1232 105.941 42.4325 104.798C46.5747 103.262 57.0105 94.1991 57.2885 93.7295" fill="#AEC2FD"/>
<path fill-rule="evenodd" clip-rule="evenodd" d="M57.3317 94.0247C58.0234 98.398 58.6706 108.169 58.5065 113.658C66.604 115.038 74.1135 115.039 79.6938 113.431C76.1236 113.842 64.0925 113.497 63.0282 110.1C62.4197 108.157 62.0163 95.9268 60.9075 90.2556C60.1258 91.1088 57.8297 92.6748 57.3328 94.0247" fill="#9BB3FB"/>
<path fill-rule="evenodd" clip-rule="evenodd" d="M72.8999 75.4261C72.2755 76.6606 71.6031 77.5624 70.6277 78.0263L70.6608 79.8198L70.924 80.0415C71.953 81.1368 70.6209 82.1756 69.4483 82.1054C64.8389 82.3306 66.2838 80.7385 65.5147 79.4712L65.9614 76.8077C65.8087 76.7986 64.5244 76.1333 64.1928 76.0326C63.8623 75.9307 63.3746 75.2971 63.3427 74.6284C63.3108 73.9596 64.3512 74.1758 64.3512 74.1758C63.0897 72.4615 61.6608 71.0607 63.5137 69.5173C65.3665 67.9728 69.6215 67.0721 69.6215 67.0721L72.1832 66.1907C71.8573 67.0687 72.2926 69.996 72.9512 71.8245C73.5403 73.464 73.7386 73.7695 72.9011 75.4272" fill="#F7AAAC"/>
<path fill-rule="evenodd" clip-rule="evenodd" d="M66.9973 77.1221C66.9973 77.1221 68.4456 79.5888 69.6364 79.8128C70.8261 80.0368 70.2187 79.8716 70.662 79.8185L70.629 78.025C69.8085 78.1563 69.0063 78.0918 66.9984 77.1221" fill="#EA8287"/>
<path fill-rule="evenodd" clip-rule="evenodd" d="M69.4484 82.1053C68.9014 82.7366 67.9385 83.7448 67.3915 84.3762C65.9535 83.0523 65.2025 81.7828 64.4516 79.935C64.7171 79.668 65.2515 79.3715 65.517 79.1045C66.1233 80.2688 67.2423 81.3087 69.4484 82.1053Z" fill="white"/>
<path fill-rule="evenodd" clip-rule="evenodd" d="M69.4484 82.1054C70.0637 82.6542 71.071 83.3286 71.6864 83.8774C71.9143 82.6327 71.7616 81.2749 71.3571 79.8412L70.6813 79.478C70.6323 80.4839 70.0534 81.336 69.4495 82.1054" fill="white"/>
<path d="M48.1211 110.103L50.4343 129.11L48.3592 160.703C48.4287 160.799 48.4982 160.891 48.5666 160.982C48.6202 161.054 48.6726 161.123 48.7262 161.192C48.8538 161.359 48.9791 161.516 49.1056 161.663C49.1626 161.73 49.2184 161.795 49.2777 161.858C50.2121 162.881 51.42 163.128 52.4102 163.367C53.176 163.553 53.7663 163.644 54.287 164.66C54.3041 164.692 54.3155 164.724 54.3258 164.757C54.4363 165.12 54.1537 165.507 53.7515 165.497L44.6729 165.215C44.225 165.205 43.8684 164.864 43.8228 164.441C43.8159 164.381 43.8148 164.32 43.8228 164.258L44.429 160.322C44.429 160.322 44.429 160.316 44.4313 160.305C44.2113 152.623 42.461 141.366 43.8957 132.393C43.8957 132.393 42.1306 122.663 42.1659 122.255C42.2001 121.847 48.1233 110.101 48.1233 110.101" fill="#F7AAAC"/>
<path d="M40.6171 125.729C40.2229 129.109 42.5976 131.116 42.2034 134.497C42.1977 142.961 36.2243 152.715 34.205 161.263C34.1378 161.545 34.6472 164.234 34.589 164.515C33.6922 165.467 31.1351 166.812 30.8605 162.418C32.0046 155.037 33.4267 143.11 36.3701 134.13L34.5116 125.177L40.6171 125.727V125.729Z" fill="#F7AAAC"/>
<path fill-rule="evenodd" clip-rule="evenodd" d="M53.3001 107.754C54.222 113.135 53.7206 126.892 52.7019 137.525C45.3291 139.404 34.4786 138.895 31.7688 136.62C33.5772 122.753 34.4979 109.427 37.3866 106.974C40.4485 103.365 52.4079 104.166 53.3001 107.754Z" fill="#355298"/>
<path fill-rule="evenodd" clip-rule="evenodd" d="M39.7169 85.5552C39.7169 85.5552 40.2081 91.0634 41.3829 97.986C42.5589 104.909 41.0331 107.686 41.0331 107.686L50.2074 107.47C50.2074 107.47 49.6092 99.3857 48.6155 94.4342C47.6218 89.4827 46.4926 84.5369 46.4926 84.5369L44.054 84.9069L39.8525 84.839L39.7181 85.5552H39.7169Z" fill="white"/>
<path fill-rule="evenodd" clip-rule="evenodd" d="M45.7302 87.995C48.1871 87.393 48.0184 86.292 48.0184 86.292L45.3861 83.9634L39.3694 84.4431L39.0082 86.782L39.8503 88.0628C41.8741 88.0097 43.2723 88.5969 45.7291 87.995" fill="#F7AAAC"/>
<path d="M33.5327 85.1582C31.7984 92.1838 39.0059 101.288 34.7406 111.604C37.0676 111.925 40.6753 112.832 43.4649 112.416C43.7999 110.674 44.9235 107.682 44.1873 99.2161C43.45 90.7501 39.8207 84.6434 39.8207 84.6434L40.5066 84.7712L43.7053 84.8391L45.5627 84.4691C45.5627 84.4691 47.5911 89.8212 48.2794 94.3325C48.9688 98.8439 48.8628 110.082 49.0223 112.649C51.2752 112.489 55.2704 112.972 54.5627 110.883C54.0397 109.341 52.6802 102.309 52.6289 100.012C52.5366 95.8929 53.6602 94.0643 52.9548 91.6723C52.1765 89.0291 50.0456 84.632 48.7169 84.0934C42.4427 82.3475 36.1149 81.3337 33.5316 85.1582" fill="#F49123"/>
<path d="M49.9441 111.255C50.6096 113.531 55.3831 112.641 54.5638 110.882C54.1649 110.025 53.3467 105.445 52.9775 103.236C52.5365 106.372 49.3983 109.597 49.9441 111.255Z" fill="#EF7E05"/>
<path d="M34.0034 94.1368C35.3776 97.6479 36.5844 102.225 35.7047 110.158C36.475 110.264 41.3089 112.287 42.1396 112.369C42.6341 110.59 39.26 109.347 37.5268 106.659C37.5006 106.285 37.4026 105.647 37.3707 105.27C36.9764 100.62 36.1377 95.8183 34.8626 92.4316L34.0045 94.138L34.0034 94.1368Z" fill="#EF7E05"/>
<path fill-rule="evenodd" clip-rule="evenodd" d="M44.9178 81.7974L44.9497 83.5015L45.1992 83.7119C46.177 84.7518 45.1183 86.8881 44.005 86.8224C42.8951 86.8768 41.8866 86.5531 41.1232 86.0655C39.9517 85.3153 39.3603 84.177 39.8731 83.4234L40.2412 83.016L40.3221 80.6048C40.1762 80.5969 39.1199 79.9994 38.8042 79.9044C38.4897 79.8082 38.0271 79.2062 37.9963 78.5703C37.9655 77.9344 38.9546 78.1403 38.9546 78.1403C37.7559 76.5121 36.3987 75.1814 38.1592 73.715C39.9187 72.2486 43.9617 71.392 43.9617 71.392L46.3946 70.5547C46.0847 71.3886 46.4994 74.1699 47.1239 75.9056C48.0116 78.3746 47.5193 80.5595 44.9178 81.7974Z" fill="#F7AAAC"/>
<path fill-rule="evenodd" clip-rule="evenodd" d="M41.4696 80.9399C41.4696 80.9399 42.8461 83.2833 43.9765 83.496C45.1069 83.7088 44.5292 83.5515 44.9508 83.5017L44.9189 81.7976C44.1395 81.9221 43.3783 81.861 41.4707 80.9399" fill="#EA8287"/>
<path d="M34.3259 84.511C28.0824 87.0818 27.2904 100.428 28.5701 104.243C29.6458 107.338 37.8595 115.537 40.5385 114.424C41.8308 113.887 43.0774 112.131 41.1322 110.877C38.2914 109.629 34.2062 103.646 34.0432 102.877C33.2729 97.1873 37.8595 83.9554 34.3259 84.5098" fill="#F49123"/>
<path fill-rule="evenodd" clip-rule="evenodd" d="M41.3703 111.835L42.4745 112.439C42.813 112.444 47.6537 112.219 46.8868 112.863C46.4435 113.235 45.2003 113.75 45.2185 113.805C45.4476 114.51 47.8896 114.635 47.9135 114.7C48.2519 115.6 45.9774 115.199 45.5957 115.061C45.4966 115.024 47.1774 115.693 47.0099 115.899C46.6885 116.298 45.5068 115.7 44.9473 115.636C44.8117 115.621 46.3603 116.205 46.2281 116.479C45.7735 116.736 44.5599 116.126 44.2248 116.079C44.1439 116.068 45.443 116.642 45.5421 116.817C45.6265 116.964 45.3746 117.114 45.1934 117.054C42.5087 116.166 43.4067 115.259 40.3037 114.323C38.5785 113.802 40.3767 111.45 41.3703 111.836" fill="#F7AAAC"/>
<path fill-rule="evenodd" clip-rule="evenodd" d="M41.8547 75.2166C41.8547 75.2166 45.3462 75.3331 46.6487 74.2129C49.3779 71.8831 47.7165 66.3274 40.738 68.3845C35.1851 70.0218 37.9029 75.4361 30.6771 77.6787C28.0004 78.5093 28.3183 79.8422 30.668 80.7451C29.0647 81.3075 30.6144 82.8656 32.097 82.6789C29.2709 84.9261 35.3902 86.6765 39.8731 83.4234C42.453 81.5451 37.9188 75.8027 41.8547 75.2166Z" fill="#355298"/>
<path fill-rule="evenodd" clip-rule="evenodd" d="M47.2811 84.1636C54.2231 83.3206 58.8656 95.0307 59.6701 99.1143C60.29 102.445 55.2806 112.088 52.2962 112.44C51.6011 112.522 49.7995 111.26 50.6507 109.637C52.5685 107.076 54.5536 101.781 54.3063 101.006C53.4528 98.8937 52.0124 97.6433 50.2678 96.5797C48.9984 95.8069 49.4485 92.9611 48.5756 90.1968C47.7142 87.4688 45.5103 84.8222 47.2811 84.1636Z" fill="#F49123"/>
<path fill-rule="evenodd" clip-rule="evenodd" d="M54.1104 100.535C53.9304 100.186 52.8398 99.1244 52.637 98.8212C52.7487 95.5138 53.5896 93.821 52.9561 91.6723C52.4706 90.0225 51.4576 87.6882 50.4411 86.0374C51.6297 87.635 52.9549 90.5679 53.5327 92.5322C54.1731 94.7059 54.205 97.1522 54.1104 100.537" fill="#EF7E05"/>
<path fill-rule="evenodd" clip-rule="evenodd" d="M50.6461 110.412L49.9442 111.255C49.6718 111.367 45.663 112.725 46.4937 113.005C46.9746 113.166 48.1506 113.189 48.154 113.239C48.195 113.885 45.9752 116.294 45.9764 116.354C45.9923 117.195 47.4919 115.747 47.7563 115.513C47.8258 115.452 46.9427 116.497 47.035 116.753C47.0715 116.853 47.4179 116.831 47.705 116.567C48.056 116.241 48.5665 115.588 48.6827 115.595C48.8035 115.601 47.8896 116.654 48.0549 116.842C48.1597 116.956 48.3192 116.843 48.5346 116.633C48.889 116.286 49.3232 115.652 49.4496 115.629C49.5795 115.605 48.8206 116.588 48.8377 116.707C48.8605 116.865 49.0371 116.805 49.1078 116.748C51.004 115.17 50.1311 114.147 52.3509 112.399C53.5861 111.426 51.3834 109.685 50.6473 110.413" fill="#F7AAAC"/>
<path fill-rule="evenodd" clip-rule="evenodd" d="M95.7555 104.08C96.2683 103.956 98.3069 103.485 98.7741 103.664C99.0123 103.755 98.9599 103.828 98.8949 103.949C98.8379 104.056 98.626 104.222 98.4528 104.281C98.0927 104.404 97.6186 104.905 97.4112 104.944C98.3183 106.91 101.188 107.719 100.546 108.666C100.331 108.751 98.9792 108.78 98.634 108.878C97.5343 109.191 96.9577 109.228 93.685 106.409C92.5785 105.456 93.6018 104.43 94.4884 103.906L95.7555 104.08Z" fill="#F7AAAC"/>
<path fill-rule="evenodd" clip-rule="evenodd" d="M71.9622 69.4697C69.7709 70.6894 67.1465 69.4368 65.9022 71.0074C65.2857 71.7847 65.3917 72.8698 66.1779 74.5207C66.4093 75.0073 66.7067 75.3614 65.8509 75.005C65.4578 74.8421 64.8128 74.6169 64.602 74.7991C64.1336 75.2053 64.4082 76.0109 64.8037 76.2599C64.9803 76.3707 65.313 76.5337 65.313 76.5337C59.4923 76.1784 56.8623 62.9193 69.674 63.9275C70.0352 63.9558 69.7868 62.9148 70.164 62.9001C73.0413 62.7937 75.5984 67.1987 71.9622 69.4685" fill="#355298"/>
<path fill-rule="evenodd" clip-rule="evenodd" d="M141.989 33.0159H211.03L255.753 71.0709H149.215C149.215 82.0602 141.989 38.1156 141.989 33.0159Z" fill="#8C9EF3"/>
<path fill-rule="evenodd" clip-rule="evenodd" d="M98.7867 71.0709L141.99 33.0159L185.191 71.0709H179.309H104.67H98.7867Z" fill="#AEC2FD"/>
<path fill-rule="evenodd" clip-rule="evenodd" d="M179.309 71.0707V162.255H104.67V71.0707L141.989 38.198L179.309 71.0707Z" fill="#D8E4FB"/>
<path d="M154.206 121.171H129.771V162.239H154.206V121.171Z" fill="white"/>
<path d="M152.519 122.754H131.461V162.24H152.519V122.754Z" fill="#024BC8"/>
<path d="M154.206 81.7183H129.771V111.47H154.206V81.7183Z" fill="white"/>
<path d="M152.517 83.3965H131.46V109.794H152.517V83.3965Z" fill="#8C9EF3"/>
<path fill-rule="evenodd" clip-rule="evenodd" d="M142.368 100.711L152.518 90.2566V92.5241L142.368 102.979V100.711Z" fill="#A5C4FF"/>
<path fill-rule="evenodd" clip-rule="evenodd" d="M142.368 104.911L152.518 94.4558V98.6254L142.368 109.081V104.911Z" fill="#A5C4FF"/>
<path d="M152.519 122.405H131.461V162.239H152.519V122.405Z" fill="#D8E4FB"/>
<path fill-rule="evenodd" clip-rule="evenodd" d="M150.609 144.121V162.255H133.313V144.121V124.269H150.609V144.121Z" fill="#8C9EF3"/>
<path fill-rule="evenodd" clip-rule="evenodd" d="M131.46 100.711L141.611 90.2566V92.5241L131.46 102.979V100.711Z" fill="#A5C4FF"/>
<path fill-rule="evenodd" clip-rule="evenodd" d="M131.46 104.911L141.611 94.4558V98.6254L131.46 109.081V104.911Z" fill="#A5C4FF"/>
<path d="M142.833 82.9075H141.144V110.101H142.833V82.9075Z" fill="white"/>
<path d="M155.136 121.171H154.206V162.239H155.136V121.171Z" fill="#8C9EF3"/>
<path d="M155.136 81.7183H154.206V111.47H155.136V81.7183Z" fill="#8C9EF3"/>
</g>
</g>
<defs>
<clipPath id="clip0_237_5095">
<path d="M0 0H164V140C164 148.837 156.837 156 148 156H16C7.16345 156 0 148.837 0 140V0Z" fill="white"/>
</clipPath>
<clipPath id="clip1_237_5095">
<rect width="164" height="153.524" fill="white" transform="translate(0 2.47607)"/>
</clipPath>
</defs>
</svg>
