<svg width="19" height="18" viewBox="0 0 19 18" fill="none" xmlns="http://www.w3.org/2000/svg">
<g clip-path="url(#clip0_237_8470)">
<path d="M17.5347 3.05775C17.3238 2.80458 17.0597 2.60096 16.7612 2.46136C16.4626 2.32176 16.137 2.2496 15.8075 2.25H3.6815L3.65 1.98675C3.58554 1.43956 3.32254 0.935049 2.91087 0.568858C2.4992 0.202667 1.96747 0.000256345 1.4165 0L1.25 0C1.05109 0 0.860322 0.0790176 0.71967 0.21967C0.579018 0.360322 0.5 0.551088 0.5 0.75C0.5 0.948912 0.579018 1.13968 0.71967 1.28033C0.860322 1.42098 1.05109 1.5 1.25 1.5H1.4165C1.6002 1.50002 1.7775 1.56747 1.91478 1.68954C2.05206 1.81161 2.13976 1.97981 2.16125 2.16225L3.19325 10.9373C3.30039 11.8498 3.73886 12.6913 4.42543 13.302C5.112 13.9127 5.99889 14.25 6.91775 14.25H14.75C14.9489 14.25 15.1397 14.171 15.2803 14.0303C15.421 13.8897 15.5 13.6989 15.5 13.5C15.5 13.3011 15.421 13.1103 15.2803 12.9697C15.1397 12.829 14.9489 12.75 14.75 12.75H6.91775C6.45354 12.7487 6.0011 12.6038 5.62245 12.3353C5.2438 12.0668 4.95748 11.6877 4.80275 11.25H13.7428C14.622 11.2501 15.4733 10.9412 16.1479 10.3773C16.8225 9.81348 17.2775 9.03052 17.4335 8.16525L18.0223 4.89975C18.081 4.57576 18.0678 4.2428 17.9836 3.92448C17.8993 3.60616 17.7461 3.31026 17.5347 3.05775ZM16.55 4.6335L15.9605 7.899C15.8668 8.41875 15.5934 8.88899 15.1879 9.2274C14.7824 9.5658 14.2709 9.7508 13.7428 9.75H4.56425L3.8585 3.75H15.8075C15.9177 3.74934 16.0266 3.77297 16.1267 3.81919C16.2267 3.86542 16.3153 3.93311 16.3861 4.01746C16.457 4.1018 16.5085 4.20073 16.5368 4.3072C16.5651 4.41368 16.5696 4.52508 16.55 4.6335Z" fill="#2A3855"/>
<path d="M5.75 18C6.57843 18 7.25 17.3284 7.25 16.5C7.25 15.6716 6.57843 15 5.75 15C4.92157 15 4.25 15.6716 4.25 16.5C4.25 17.3284 4.92157 18 5.75 18Z" fill="#2A3855"/>
<path d="M13.25 18C14.0784 18 14.75 17.3284 14.75 16.5C14.75 15.6716 14.0784 15 13.25 15C12.4216 15 11.75 15.6716 11.75 16.5C11.75 17.3284 12.4216 18 13.25 18Z" fill="#2A3855"/>
</g>
<defs>
<clipPath id="clip0_237_8470">
<rect width="18" height="18" fill="white" transform="translate(0.5)"/>
</clipPath>
</defs>
</svg>
