<svg width="64" height="64" viewBox="0 0 64 64" fill="none" xmlns="http://www.w3.org/2000/svg">
<path d="M0 32C0 14.3269 14.3269 0 32 0C49.6731 0 64 14.3269 64 32C64 49.6731 49.6731 64 32 64C14.3269 64 0 49.6731 0 32Z" fill="#F6FCF7"/>
<path d="M40.8831 24.3102L27.7574 37.436L23.117 32.7956C22.8974 32.5759 22.5412 32.5759 22.3215 32.7956L21.7912 33.3259C21.5716 33.5455 21.5716 33.9017 21.7912 34.1214L27.3597 39.6898C27.5793 39.9095 27.9355 39.9095 28.1552 39.6898L42.2089 25.6361C42.4286 25.4165 42.4286 25.0603 42.2089 24.8406L41.6786 24.3102C41.4589 24.0906 41.1028 24.0906 40.8831 24.3102Z" fill="#4ECB62"/>
</svg>
