<svg width="42" height="42" viewBox="0 0 42 42" fill="none" xmlns="http://www.w3.org/2000/svg">
<path d="M0.5 21C0.5 9.67816 9.67816 0.5 21 0.5C32.3218 0.5 41.5 9.67816 41.5 21C41.5 32.3218 32.3218 41.5 21 41.5C9.67816 41.5 0.5 32.3218 0.5 21Z" fill="#F7F4FF"/>
<path d="M0.5 21C0.5 9.67816 9.67816 0.5 21 0.5C32.3218 0.5 41.5 9.67816 41.5 21C41.5 32.3218 32.3218 41.5 21 41.5C9.67816 41.5 0.5 32.3218 0.5 21Z" stroke="#F0EBFF"/>
<path d="M29.7188 25.5H18.75V24.0938C18.75 23.6262 18.3738 23.25 17.9062 23.25H16.2188C15.7512 23.25 15.375 23.6262 15.375 24.0938V25.5H12.2812C12.1266 25.5 12 25.6266 12 25.7812V26.3438C12 26.4984 12.1266 26.625 12.2812 26.625H15.375V28.0312C15.375 28.4988 15.7512 28.875 16.2188 28.875H17.9062C18.3738 28.875 18.75 28.4988 18.75 28.0312V26.625H29.7188C29.8734 26.625 30 26.4984 30 26.3438V25.7812C30 25.6266 29.8734 25.5 29.7188 25.5ZM17.625 27.75H16.5V24.375H17.625V27.75ZM29.7188 15.375H21V13.9688C21 13.5012 20.6238 13.125 20.1562 13.125H18.4688C18.0012 13.125 17.625 13.5012 17.625 13.9688V15.375H12.2812C12.1266 15.375 12 15.5016 12 15.6562V16.2188C12 16.3734 12.1266 16.5 12.2812 16.5H17.625V17.9062C17.625 18.3738 18.0012 18.75 18.4688 18.75H20.1562C20.6238 18.75 21 18.3738 21 17.9062V16.5H29.7188C29.8734 16.5 30 16.3734 30 16.2188V15.6562C30 15.5016 29.8734 15.375 29.7188 15.375ZM19.875 17.625H18.75V14.25H19.875V17.625ZM29.7188 20.4375H26.625V19.0312C26.625 18.5637 26.2488 18.1875 25.7812 18.1875H24.0938C23.6262 18.1875 23.25 18.5637 23.25 19.0312V20.4375H12.2812C12.1266 20.4375 12 20.5641 12 20.7188V21.2812C12 21.4359 12.1266 21.5625 12.2812 21.5625H23.25V22.9688C23.25 23.4363 23.6262 23.8125 24.0938 23.8125H25.7812C26.2488 23.8125 26.625 23.4363 26.625 22.9688V21.5625H29.7188C29.8734 21.5625 30 21.4359 30 21.2812V20.7188C30 20.5641 29.8734 20.4375 29.7188 20.4375ZM25.5 22.6875H24.375V19.3125H25.5V22.6875Z" fill="#6833FF"/>
</svg>
