<svg width="12" height="12" viewBox="0 0 12 12" fill="none" xmlns="http://www.w3.org/2000/svg">
<path d="M6.79547 6L9.19922 3.59625L9.69492 3.10055C9.76805 3.02742 9.76805 2.90859 9.69492 2.83547L9.16453 2.30508C9.09141 2.23195 8.97258 2.23195 8.89945 2.30508L6 5.20453L3.10055 2.30484C3.02742 2.23172 2.90859 2.23172 2.83547 2.30484L2.30484 2.83523C2.23172 2.90836 2.23172 3.02719 2.30484 3.10031L5.20453 6L2.30484 8.89945C2.23172 8.97258 2.23172 9.09141 2.30484 9.16453L2.83523 9.69492C2.90836 9.76805 3.02719 9.76805 3.10031 9.69492L6 6.79547L8.40375 9.19922L8.89945 9.69492C8.97258 9.76805 9.09141 9.76805 9.16453 9.69492L9.69492 9.16453C9.76805 9.09141 9.76805 8.97258 9.69492 8.89945L6.79547 6Z" fill="#606F8D"/>
</svg>
