<svg width="14" height="14" viewBox="0 0 14 14" fill="none" xmlns="http://www.w3.org/2000/svg">
<g clip-path="url(#clip0_237_7474)">
<path d="M10.2083 1.11816C9.55147 1.12838 8.90894 1.31175 8.34561 1.64974C7.78229 1.98773 7.31813 2.46839 7 3.04316C6.68187 2.46839 6.21771 1.98773 5.65439 1.64974C5.09107 1.31175 4.44853 1.12838 3.79167 1.11816C2.74455 1.16366 1.758 1.62173 1.04754 2.3923C0.337086 3.16287 -0.03952 4.1833 1.10082e-06 5.23066C1.10082e-06 7.88308 2.79183 10.7799 5.13333 12.744C5.65613 13.1833 6.31712 13.4242 7 13.4242C7.68288 13.4242 8.34387 13.1833 8.86667 12.744C11.2082 10.7799 14 7.88308 14 5.23066C14.0395 4.1833 13.6629 3.16287 12.9525 2.3923C12.242 1.62173 11.2555 1.16366 10.2083 1.11816ZM8.11708 11.8515C7.80441 12.1148 7.40877 12.2592 7 12.2592C6.59123 12.2592 6.19559 12.1148 5.88292 11.8515C2.88575 9.33675 1.16667 6.92408 1.16667 5.23066C1.12679 4.49258 1.38038 3.76867 1.87213 3.21682C2.36388 2.66497 3.05389 2.32995 3.79167 2.28483C4.52945 2.32995 5.21946 2.66497 5.71121 3.21682C6.20295 3.76867 6.45654 4.49258 6.41667 5.23066C6.41667 5.38537 6.47813 5.53375 6.58752 5.64314C6.69692 5.75254 6.84529 5.814 7 5.814C7.15471 5.814 7.30308 5.75254 7.41248 5.64314C7.52188 5.53375 7.58333 5.38537 7.58333 5.23066C7.54346 4.49258 7.79705 3.76867 8.2888 3.21682C8.78054 2.66497 9.47055 2.32995 10.2083 2.28483C10.9461 2.32995 11.6361 2.66497 12.1279 3.21682C12.6196 3.76867 12.8732 4.49258 12.8333 5.23066C12.8333 6.92408 11.1143 9.33675 8.11708 11.8492V11.8515Z" fill="#F83C52"/>
</g>
<defs>
<clipPath id="clip0_237_7474">
<rect width="14" height="14" fill="white"/>
</clipPath>
</defs>
</svg>
