<svg width="19" height="18" viewBox="0 0 19 18" fill="none" xmlns="http://www.w3.org/2000/svg">
<g clip-path="url(#clip0_237_8466)">
<path d="M17.8408 6.80183L12.152 1.11233C11.4479 0.410325 10.4943 0.0161133 9.5 0.0161133C8.50576 0.0161133 7.55207 0.410325 6.848 1.11233L1.15925 6.80183C0.949571 7.01017 0.783329 7.25806 0.670163 7.53112C0.556998 7.80419 0.49916 8.097 0.500001 8.39258V15.7553C0.500001 16.3521 0.737054 16.9244 1.15901 17.3463C1.58097 17.7683 2.15326 18.0053 2.75 18.0053H16.25C16.8467 18.0053 17.419 17.7683 17.841 17.3463C18.263 16.9244 18.5 16.3521 18.5 15.7553V8.39258C18.5008 8.097 18.443 7.80419 18.3298 7.53112C18.2167 7.25806 18.0504 7.01017 17.8408 6.80183ZM11.75 16.5053H7.25V13.5548C7.25 12.9581 7.48706 12.3858 7.90901 11.9638C8.33097 11.5419 8.90327 11.3048 9.5 11.3048C10.0967 11.3048 10.669 11.5419 11.091 11.9638C11.513 12.3858 11.75 12.9581 11.75 13.5548V16.5053ZM17 15.7553C17 15.9542 16.921 16.145 16.7803 16.2857C16.6397 16.4263 16.4489 16.5053 16.25 16.5053H13.25V13.5548C13.25 12.5603 12.8549 11.6064 12.1517 10.9032C11.4484 10.1999 10.4946 9.80483 9.5 9.80483C8.50544 9.80483 7.55161 10.1999 6.84835 10.9032C6.14509 11.6064 5.75 12.5603 5.75 13.5548V16.5053H2.75C2.55109 16.5053 2.36032 16.4263 2.21967 16.2857C2.07902 16.145 2 15.9542 2 15.7553V8.39258C2.0007 8.19382 2.07964 8.00332 2.21975 7.86233L7.9085 2.17508C8.33128 1.75428 8.9035 1.51804 9.5 1.51804C10.0965 1.51804 10.6687 1.75428 11.0915 2.17508L16.7803 7.86458C16.9198 8.00502 16.9987 8.1946 17 8.39258V15.7553Z" fill="white"/>
</g>
<defs>
<clipPath id="clip0_237_8466">
<rect width="18" height="18" fill="white" transform="translate(0.5)"/>
</clipPath>
</defs>
</svg>
