<svg width="16" height="16" viewBox="0 0 16 16" fill="none" xmlns="http://www.w3.org/2000/svg">
<g clip-path="url(#clip0_411_23565)">
<path d="M9 1C9 1.55228 8.55228 2 8 2C7.44772 2 7 1.55228 7 1C7 0.447719 7.44772 0 8 0C8.55228 0 9 0.447719 9 1ZM8 14C7.44772 14 7 14.4477 7 15C7 15.5523 7.44772 16 8 16C8.55228 16 9 15.5523 9 15C9 14.4477 8.55228 14 8 14ZM16 8C16 7.44772 15.5523 7 15 7C14.4477 7 14 7.44772 14 8C14 8.55228 14.4477 9 15 9C15.5523 9 16 8.55228 16 8ZM2 8C2 7.44772 1.55228 7 1 7C0.447719 7 0 7.44772 0 8C0 8.55228 0.447719 9 1 9C1.55228 9 2 8.55228 2 8ZM3.05025 11.9497C2.49797 11.9497 2.05025 12.3975 2.05025 12.9497C2.05025 13.502 2.49797 13.9497 3.05025 13.9497C3.60253 13.9497 4.05025 13.502 4.05025 12.9497C4.05025 12.3975 3.60253 11.9497 3.05025 11.9497ZM12.9497 11.9497C12.3975 11.9497 11.9497 12.3975 11.9497 12.9497C11.9497 13.502 12.3975 13.9497 12.9497 13.9497C13.502 13.9497 13.9497 13.502 13.9497 12.9497C13.9497 12.3975 13.502 11.9497 12.9497 11.9497ZM3.05025 2.05025C2.49797 2.05025 2.05025 2.49797 2.05025 3.05025C2.05025 3.60253 2.49797 4.05025 3.05025 4.05025C3.60253 4.05025 4.05025 3.60253 4.05025 3.05025C4.05025 2.49797 3.60253 2.05025 3.05025 2.05025Z" fill="#AFB7C6"/>
</g>
<defs>
<clipPath id="clip0_411_23565">
<rect width="16" height="16" fill="white"/>
</clipPath>
</defs>
</svg>
