<svg width="16" height="17" viewBox="0 0 16 17" fill="none" xmlns="http://www.w3.org/2000/svg">
<g clip-path="url(#clip0_333_16864)">
<path opacity="0.4" d="M9.47063 11.4034L9.47375 11.4063L8.72375 12.25C8.65322 12.3289 8.56681 12.3919 8.47019 12.435C8.37356 12.4781 8.26892 12.5002 8.16313 12.5H7V13.75C7 13.9489 6.92098 14.1397 6.78033 14.2803C6.63968 14.421 6.44891 14.5 6.25 14.5H5V15.75C5 15.9489 4.92098 16.1397 4.78033 16.2803C4.63968 16.421 4.44891 16.5 4.25 16.5H0.750002C0.55109 16.5 0.360324 16.421 0.219672 16.2803C0.0790199 16.1397 2.25522e-06 15.9489 2.25522e-06 15.75V13.3125C-0.00023949 13.2139 0.0189562 13.1163 0.0564914 13.0251C0.0940266 12.934 0.149165 12.8511 0.218752 12.7813L5.27594 7.72407L5.2725 7.71313C5.57932 8.64689 6.13042 9.48153 6.86862 10.1304C7.60683 10.7794 8.50524 11.2189 9.47063 11.4034Z" fill="#0034DD"/>
<path d="M10.5 0.5C9.4122 0.5 8.34884 0.822569 7.44437 1.42692C6.5399 2.03127 5.83495 2.89025 5.41867 3.89524C5.00238 4.90024 4.89346 6.0061 5.10568 7.073C5.3179 8.13989 5.84173 9.1199 6.61092 9.88909C7.3801 10.6583 8.36011 11.1821 9.427 11.3943C10.4939 11.6065 11.5998 11.4976 12.6048 11.0813C13.6098 10.6651 14.4687 9.96011 15.0731 9.05564C15.6774 8.15117 16 7.0878 16 6C16 4.54131 15.4205 3.14236 14.3891 2.11091C13.3576 1.07946 11.9587 0.5 10.5 0.5ZM12 6C11.7033 6 11.4133 5.91203 11.1666 5.7472C10.92 5.58238 10.7277 5.34811 10.6142 5.07403C10.5007 4.79994 10.4709 4.49834 10.5288 4.20737C10.5867 3.91639 10.7296 3.64912 10.9393 3.43934C11.1491 3.22956 11.4164 3.0867 11.7074 3.02882C11.9983 2.97094 12.2999 3.00065 12.574 3.11418C12.8481 3.22771 13.0824 3.41997 13.2472 3.66665C13.412 3.91332 13.5 4.20333 13.5 4.5C13.5 4.89783 13.342 5.27936 13.0607 5.56066C12.7794 5.84197 12.3978 6 12 6Z" fill="#1D2939"/>
</g>
<defs>
<clipPath id="clip0_333_16864">
<rect width="16" height="16" fill="white" transform="translate(0 0.5)"/>
</clipPath>
</defs>
</svg>
