<svg width="184" height="56" viewBox="0 0 184 56" fill="none" xmlns="http://www.w3.org/2000/svg">
<g clip-path="url(#clip0_237_8448)">
<path d="M2.50476 0.675049H0V34.4383H20.6358V31.8792H2.50476V0.675049Z" fill="#172032"/>
<path d="M106.572 25.1116L105.899 24.6879L105.491 25.3754C102.793 29.8726 98.1084 32.5543 92.9606 32.5543C84.8649 32.5543 78.2798 25.8262 78.2798 17.5588C78.2798 15.5315 78.6762 13.5976 79.3898 11.834C79.1723 12.0251 78.9568 12.2162 78.7433 12.4156C77.7552 13.3358 76.8139 14.3308 75.9071 15.3819C75.8197 16.0923 75.775 16.8193 75.775 17.5588C75.775 27.2408 83.4844 35.1114 92.9606 35.1114C98.9867 35.1114 104.47 31.9727 107.623 26.7132L108.032 26.0256L107.359 25.6019L106.572 25.1096V25.1116Z" fill="#172032"/>
<path d="M94.1398 0.0436218V0.00623169C93.9406 0.00623169 93.7393 0.00623169 93.54 0.0103861H93.5258C93.3388 0.00623169 93.1477 0.00207723 92.9606 0.00207723C91.4175 0.00207723 89.9212 0.211877 88.496 0.602396C87.4489 0.835046 86.4487 1.13209 85.4931 1.48522C81.0285 3.13661 77.5661 6.02396 74.5897 9.32468C72.3553 11.807 70.3853 14.5281 68.4417 17.1974C65.5283 21.2064 62.6718 25.0846 59.2033 27.9117C59.185 27.9263 59.1667 27.9408 59.1484 27.9553C61.2506 25.0431 62.4969 21.4474 62.4969 17.5588C62.4929 7.87685 54.7854 0 45.3092 0C35.8331 0 28.1256 7.87477 28.1256 17.5567C28.1256 27.2387 35.8127 35.0906 45.2706 35.1114V35.1633C45.5654 35.1716 45.8561 35.1779 46.1428 35.1779C49.2514 35.1779 52.0042 34.6378 54.4581 33.6947C56.601 32.868 58.5141 31.7276 60.2422 30.3836C63.2736 28.0301 65.7621 25.068 68.0981 21.9854C71.2066 17.8704 74.0591 13.5373 77.4319 10.0496C77.8508 9.61341 78.2838 9.18966 78.7209 8.7846C80.7011 6.94417 82.8623 5.4091 85.3691 4.32894C86.3389 3.91142 87.3574 3.55622 88.4411 3.28825C90.1611 2.85203 92.0498 2.609 94.1398 2.609C98.8139 2.98082 103 5.58567 105.491 9.73805L105.899 10.4256L106.572 10.0019L107.359 9.50955L108.032 9.0858L107.623 8.39823C104.675 3.48351 99.6962 0.4196 94.1398 0.0436218ZM30.6324 17.5567C30.6324 9.28729 37.2176 2.56122 45.3092 2.56122C53.4009 2.56122 59.9861 9.28936 59.9861 17.5567C59.9861 25.8241 53.4009 32.5522 45.3092 32.5522C37.2176 32.5522 30.6324 25.8241 30.6324 17.5567Z" fill="#172032"/>
<path d="M148.576 33.1047L136.544 18.8363C135.235 17.2409 133.378 16.2335 131.359 16.0008L147.563 2.1021L149.226 0.677126H145.333L145.113 0.866154L126.035 17.2347L125.329 17.8392L125.309 17.8558L124.884 18.211V0.675049H122.379V34.4404H124.884V21.5595L126.952 19.7856C127.93 18.9609 129.174 18.5039 130.449 18.5039C132.071 18.5039 133.596 19.2268 134.631 20.4897L146.156 34.162L146.392 34.4425H149.7L148.574 33.1068L148.576 33.1047Z" fill="#172032"/>
<path d="M183.211 31.8792H165.344V21.2832C165.351 19.1395 167.062 17.3947 169.163 17.3947C169.38 17.3947 169.598 17.4154 169.827 17.457L175.054 18.6057L175.073 18.6098H175.091C175.42 18.668 175.762 18.6971 176.108 18.6971C177.435 18.6971 178.704 18.2816 179.777 17.4964L180.42 17.027L179.96 16.3706L179.424 15.6041L178.964 14.9498L178.322 15.4171C177.669 15.8928 176.903 16.1442 176.108 16.1442C175.898 16.1442 175.685 16.1255 175.475 16.0902L170.321 14.9518L170.309 14.9477H170.297C169.921 14.875 169.537 14.8397 169.159 14.8397C167.758 14.8397 166.424 15.3091 165.34 16.1504V3.23419H183.913V0.675049H162.836V21.2438C162.836 21.2625 162.836 21.2791 162.836 21.2978V22.1058V34.4404H183.998V31.8812H183.207L183.211 31.8792Z" fill="#172032"/>
<path d="M49.6194 53.258L49.8146 53.3784L49.6946 53.5779C48.7858 55.0942 47.2041 55.9999 45.4658 55.9999C42.7333 55.9999 40.5092 53.7295 40.5092 50.9356C40.5092 48.1417 42.7333 45.8713 45.4658 45.8713C47.2041 45.8713 48.7858 46.777 49.6946 48.2934L49.8146 48.4928L49.6194 48.6154L49.3917 48.7566L49.1965 48.8792L49.0766 48.6798C48.2979 47.3836 46.9479 46.6108 45.4617 46.6108C43.1278 46.6108 41.2289 48.551 41.2289 50.9356C41.2289 53.3203 43.1278 55.2604 45.4617 55.2604C46.9459 55.2604 48.2979 54.4877 49.0766 53.1915L49.1965 52.9921L49.3917 53.1146L49.6194 53.258Z" fill="#F83C52"/>
<path d="M66.8437 50.9378C66.8437 53.7296 64.6195 56.0021 61.887 56.0021C59.1546 56.0021 56.9304 53.7296 56.9304 50.9378C56.9304 48.146 59.1546 45.8735 61.887 45.8735C64.6195 45.8735 66.8437 48.146 66.8437 50.9378ZM66.1219 50.9378C66.1219 48.5532 64.223 46.613 61.889 46.613C59.5551 46.613 57.6562 48.5532 57.6562 50.9378C57.6562 53.3225 59.5551 55.2626 61.889 55.2626C64.223 55.2626 66.1219 53.3225 66.1219 50.9378Z" fill="#F83C52"/>
<path d="M82.8176 46.0665V55.8046H82.0958V55.5719C82.0958 54.23 81.429 53.0086 80.3149 52.3044L76.9542 50.2023C76.3849 49.845 75.899 49.361 75.5371 48.7898V55.8025H74.8154V46.0645H75.5371V46.2971C75.5371 47.639 76.204 48.8604 77.3181 49.5646L80.6808 51.6667C81.2501 52.024 81.736 52.508 82.0979 53.0793V46.0665H82.8196H82.8176Z" fill="#F83C52"/>
<path d="M99.2408 46.0665V55.8046H98.5191V55.5719C98.5191 54.23 97.8522 53.0086 96.7381 52.3044L93.3774 50.2023C92.8061 49.845 92.3223 49.361 91.9604 48.7898V55.8025H91.2386V46.0645H91.9604V46.2971C91.9604 47.639 92.6272 48.8604 93.7434 49.5646L97.1041 51.6667C97.6733 52.024 98.1592 52.508 98.5211 53.0793V46.0665H99.2429H99.2408Z" fill="#F83C52"/>
<path d="M113.535 55.0673H113.763V55.8047H107.66V52.2485V52.0158C107.66 52.0158 107.66 52.0054 107.66 51.9992V46.0667H113.739V46.8041H108.382V50.5285C108.695 50.2855 109.079 50.1505 109.483 50.1505C109.593 50.1505 109.703 50.1609 109.813 50.1816H109.817H109.821L111.307 50.5098C111.368 50.5202 111.429 50.5265 111.49 50.5265C111.72 50.5265 111.939 50.4538 112.129 50.3167L112.314 50.1816L112.446 50.3707L112.6 50.5929L112.732 50.782L112.547 50.917C112.238 51.1434 111.872 51.2639 111.488 51.2639C111.388 51.2639 111.289 51.2556 111.195 51.2389H111.189H111.183L109.675 50.9066C109.607 50.8941 109.544 50.8879 109.483 50.8879C108.878 50.8879 108.384 51.3906 108.382 52.0096V55.0652H113.535V55.0673Z" fill="#F83C52"/>
<path d="M129.477 53.258L129.672 53.3784L129.552 53.5779C128.643 55.0942 127.062 55.9999 125.323 55.9999C122.591 55.9999 120.367 53.7295 120.367 50.9356C120.367 48.1417 122.591 45.8713 125.323 45.8713C127.062 45.8713 128.643 46.777 129.552 48.2934L129.672 48.4928L129.477 48.6154L129.249 48.7566L129.054 48.8792L128.934 48.6798C128.155 47.3836 126.805 46.6108 125.319 46.6108C122.985 46.6108 121.086 48.551 121.086 50.9356C121.086 53.3203 122.985 55.2604 125.319 55.2604C126.803 55.2604 128.155 54.4877 128.934 53.1915L129.054 52.9921L129.249 53.1146L129.477 53.258Z" fill="#F83C52"/>
<path d="M143.493 46.0667V46.8041H140.13V55.8047H139.408V46.8041H136.046V46.0667H143.495H143.493Z" fill="#F83C52"/>
</g>
<defs>
<clipPath id="clip0_237_8448">
<rect width="184" height="56" fill="white"/>
</clipPath>
</defs>
</svg>
