<svg width="16" height="16" viewBox="0 0 16 16" fill="none" xmlns="http://www.w3.org/2000/svg">
<g clip-path="url(#clip0_411_13903)">
<path d="M7.99998 4C7.47256 4 6.95699 4.1564 6.51846 4.44941C6.07993 4.74243 5.73814 5.15891 5.5363 5.64618C5.33447 6.13345 5.28166 6.66962 5.38455 7.18691C5.48745 7.70419 5.74142 8.17935 6.11436 8.55229C6.4873 8.92523 6.96246 9.1792 7.47974 9.28209C7.99702 9.38499 8.5332 9.33218 9.02047 9.13035C9.50774 8.92851 9.92422 8.58672 10.2172 8.14819C10.5103 7.70966 10.6666 7.19408 10.6666 6.66667C10.6666 5.95942 10.3857 5.28115 9.8856 4.78105C9.3855 4.28095 8.70723 4 7.99998 4ZM7.99998 8C7.73627 8 7.47849 7.9218 7.25922 7.77529C7.03996 7.62878 6.86906 7.42055 6.76814 7.17691C6.66722 6.93328 6.64082 6.66519 6.69227 6.40655C6.74371 6.14791 6.8707 5.91033 7.05717 5.72386C7.24364 5.53739 7.48122 5.4104 7.73986 5.35895C7.9985 5.30751 8.26659 5.33391 8.51023 5.43483C8.75386 5.53574 8.9621 5.70664 9.10861 5.92591C9.25512 6.14517 9.33331 6.40296 9.33331 6.66667C9.33331 7.02029 9.19284 7.35943 8.94279 7.60948C8.69274 7.85952 8.3536 8 7.99998 8Z" fill="#2A3855"/>
<path d="M8.00003 16.0001C7.43865 16.003 6.88477 15.8713 6.38474 15.6161C5.88471 15.361 5.45309 14.9897 5.12603 14.5334C2.58536 11.0288 1.29669 8.39411 1.29669 6.70211C1.29669 4.92428 2.00293 3.21926 3.26005 1.96214C4.51717 0.705021 6.22219 -0.0012207 8.00003 -0.0012207C9.77786 -0.0012207 11.4829 0.705021 12.74 1.96214C13.9971 3.21926 14.7034 4.92428 14.7034 6.70211C14.7034 8.39411 13.4147 11.0288 10.874 14.5334C10.547 14.9897 10.1153 15.361 9.61532 15.6161C9.11529 15.8713 8.5614 16.003 8.00003 16.0001ZM8.00003 1.45411C6.6083 1.4557 5.27404 2.00926 4.28994 2.99336C3.30584 3.97746 2.75228 5.31172 2.75069 6.70345C2.75069 8.04345 4.01269 10.5214 6.30336 13.6808C6.49782 13.9486 6.75294 14.1666 7.04783 14.317C7.34273 14.4673 7.66903 14.5456 8.00003 14.5456C8.33102 14.5456 8.65732 14.4673 8.95222 14.317C9.24711 14.1666 9.50223 13.9486 9.69669 13.6808C11.9874 10.5214 13.2494 8.04345 13.2494 6.70345C13.2478 5.31172 12.6942 3.97746 11.7101 2.99336C10.726 2.00926 9.39175 1.4557 8.00003 1.45411Z" fill="#2A3855"/>
</g>
<defs>
<clipPath id="clip0_411_13903">
<rect width="16" height="16" fill="white"/>
</clipPath>
</defs>
</svg>
