<svg width="19" height="18" viewBox="0 0 19 18" fill="none" xmlns="http://www.w3.org/2000/svg">
<g clip-path="url(#clip0_237_8489)">
<path d="M9.5 4.5C8.90666 4.5 8.32664 4.67595 7.83329 5.00559C7.33994 5.33524 6.95543 5.80377 6.72836 6.35195C6.5013 6.90013 6.44189 7.50333 6.55765 8.08527C6.6734 8.66721 6.95912 9.20176 7.37868 9.62132C7.79824 10.0409 8.33279 10.3266 8.91473 10.4424C9.49667 10.5581 10.0999 10.4987 10.6481 10.2716C11.1962 10.0446 11.6648 9.66006 11.9944 9.16671C12.3241 8.67336 12.5 8.09334 12.5 7.5C12.5 6.70435 12.1839 5.94129 11.6213 5.37868C11.0587 4.81607 10.2957 4.5 9.5 4.5ZM9.5 9C9.20333 9 8.91332 8.91203 8.66665 8.7472C8.41997 8.58238 8.22771 8.34811 8.11418 8.07403C8.00065 7.79994 7.97095 7.49834 8.02882 7.20736C8.0867 6.91639 8.22956 6.64912 8.43934 6.43934C8.64912 6.22956 8.91639 6.0867 9.20737 6.02882C9.49834 5.97094 9.79994 6.00065 10.074 6.11418C10.3481 6.22771 10.5824 6.41997 10.7472 6.66665C10.912 6.91332 11 7.20333 11 7.5C11 7.89783 10.842 8.27936 10.5607 8.56066C10.2794 8.84196 9.89783 9 9.5 9Z" fill="#606F8D"/>
<path d="M9.49999 18C8.86845 18.0033 8.24532 17.8551 7.68279 17.5681C7.12026 17.281 6.63469 16.8633 6.26674 16.35C3.40849 12.4073 1.95874 9.44329 1.95874 7.53979C1.95874 5.53972 2.75326 3.62158 4.16752 2.20732C5.58178 0.793058 7.49993 -0.00146484 9.49999 -0.00146484C11.5001 -0.00146484 13.4182 0.793058 14.8325 2.20732C16.2467 3.62158 17.0412 5.53972 17.0412 7.53979C17.0412 9.44329 15.5915 12.4073 12.7332 16.35C12.3653 16.8633 11.8797 17.281 11.3172 17.5681C10.7547 17.8551 10.1315 18.0033 9.49999 18ZM9.49999 1.63579C7.9343 1.63757 6.43325 2.26033 5.32614 3.36744C4.21904 4.47455 3.59628 5.9756 3.59449 7.54129C3.59449 9.04879 5.01424 11.8365 7.59124 15.3908C7.81001 15.6921 8.09702 15.9374 8.42878 16.1065C8.76053 16.2756 9.12762 16.3638 9.49999 16.3638C9.87236 16.3638 10.2394 16.2756 10.5712 16.1065C10.903 15.9374 11.19 15.6921 11.4087 15.3908C13.9857 11.8365 15.4055 9.04879 15.4055 7.54129C15.4037 5.9756 14.7809 4.47455 13.6738 3.36744C12.5667 2.26033 11.0657 1.63757 9.49999 1.63579Z" fill="#606F8D"/>
</g>
<defs>
<clipPath id="clip0_237_8489">
<rect width="18" height="18" fill="white" transform="translate(0.5)"/>
</clipPath>
</defs>
</svg>
