<svg width="24" height="24" viewBox="0 0 24 24" fill="none" xmlns="http://www.w3.org/2000/svg">
<g clip-path="url(#clip0_237_8518)">
<path d="M12.009 23.665C11.533 23.665 11.054 23.497 10.672 23.158L6.92398 20.001H4.00098C1.79498 20.001 0.00097698 18.207 0.00097698 16.001V4C-2.30197e-05 1.794 1.79398 0 3.99998 0H20C22.206 0 24 1.794 24 4V16C24 18.206 22.206 20 20 20H17.148L13.301 23.18C12.939 23.502 12.476 23.664 12.008 23.664L12.009 23.665ZM3.99998 2C2.89698 2 1.99998 2.897 1.99998 4V16C1.99998 17.103 2.89698 18 3.99998 18H7.28898C7.52498 18 7.75298 18.083 7.93398 18.235L11.981 21.645L16.151 18.229C16.331 18.081 16.556 18 16.789 18H20.001C21.104 18 22.001 17.103 22.001 16V4C22.001 2.897 21.104 2 20.001 2H3.99998Z" fill="#2A3855"/>
</g>
<defs>
<clipPath id="clip0_237_8518">
<rect width="24" height="24" fill="white"/>
</clipPath>
</defs>
</svg>
