<svg width="19" height="18" viewBox="0 0 19 18" fill="none" xmlns="http://www.w3.org/2000/svg">
<g clip-path="url(#clip0_237_8494)">
<path d="M18.2802 16.7198L13.8035 12.2431C15.0235 10.751 15.6233 8.84715 15.4789 6.92525C15.3345 5.00335 14.4569 3.21048 13.0277 1.91747C11.5985 0.624463 9.72693 -0.0697502 7.80022 -0.0215763C5.87351 0.0265975 4.03902 0.813473 2.6762 2.17629C1.31338 3.53911 0.526506 5.3736 0.478332 7.30031C0.430158 9.22703 1.12437 11.0985 2.41738 12.5278C3.71039 13.957 5.50326 14.8346 7.42516 14.979C9.34706 15.1234 11.2509 14.5235 12.743 13.3036L17.2197 17.7803C17.3612 17.917 17.5506 17.9925 17.7473 17.9908C17.9439 17.9891 18.132 17.9103 18.2711 17.7712C18.4102 17.6321 18.489 17.444 18.4907 17.2474C18.4925 17.0507 18.4169 16.8613 18.2802 16.7198ZM7.99999 13.5001C6.8133 13.5001 5.65326 13.1482 4.66657 12.4889C3.67987 11.8296 2.91084 10.8925 2.45671 9.79618C2.00259 8.69982 1.88377 7.49343 2.11528 6.32954C2.34679 5.16565 2.91823 4.09656 3.75735 3.25744C4.59646 2.41832 5.66556 1.84688 6.82945 1.61537C7.99333 1.38386 9.19973 1.50268 10.2961 1.9568C11.3924 2.41093 12.3295 3.17996 12.9888 4.16666C13.6481 5.15335 14 6.31339 14 7.50008C13.9982 9.09083 13.3655 10.6159 12.2407 11.7407C11.1158 12.8656 9.59074 13.4983 7.99999 13.5001Z" fill="white"/>
</g>
<defs>
<clipPath id="clip0_237_8494">
<rect width="18" height="18" fill="white" transform="translate(0.5)"/>
</clipPath>
</defs>
</svg>
