<svg width="46" height="47" viewBox="0 0 46 47" fill="none" xmlns="http://www.w3.org/2000/svg">
<rect y="0.5" width="46" height="46" rx="14" fill="url(#paint0_linear_237_7935)"/>
<g clip-path="url(#clip0_237_7935)">
<path d="M23 23.5C23.9889 23.5 24.9556 23.2068 25.7779 22.6574C26.6001 22.1079 27.241 21.3271 27.6194 20.4134C27.9978 19.4998 28.0969 18.4945 27.9039 17.5246C27.711 16.5546 27.2348 15.6637 26.5355 14.9645C25.8363 14.2652 24.9454 13.789 23.9755 13.5961C23.0055 13.4031 22.0002 13.5022 21.0866 13.8806C20.173 14.259 19.3921 14.8999 18.8427 15.7222C18.2932 16.5444 18 17.5111 18 18.5C18.0013 19.8257 18.5285 21.0967 19.4659 22.0341C20.4033 22.9715 21.6743 23.4987 23 23.5ZM23 15.1667C23.6593 15.1667 24.3037 15.3622 24.8519 15.7284C25.4001 16.0947 25.8273 16.6153 26.0796 17.2244C26.3319 17.8335 26.3979 18.5037 26.2693 19.1503C26.1407 19.7969 25.8232 20.3909 25.357 20.857C24.8908 21.3232 24.2969 21.6407 23.6503 21.7693C23.0037 21.8979 22.3335 21.8319 21.7244 21.5796C21.1153 21.3273 20.5947 20.9001 20.2284 20.3519C19.8622 19.8037 19.6667 19.1593 19.6667 18.5C19.6667 17.6159 20.0179 16.7681 20.643 16.143C21.2681 15.5179 22.1159 15.1667 23 15.1667Z" fill="white"/>
<path d="M23 25.1667C21.0116 25.169 19.1052 25.9598 17.6991 27.3659C16.2931 28.7719 15.5022 30.6783 15.5 32.6667C15.5 32.8878 15.5878 33.0997 15.7441 33.256C15.9004 33.4123 16.1123 33.5001 16.3333 33.5001C16.5543 33.5001 16.7663 33.4123 16.9226 33.256C17.0789 33.0997 17.1667 32.8878 17.1667 32.6667C17.1667 31.1197 17.7812 29.6359 18.8752 28.542C19.9692 27.448 21.4529 26.8334 23 26.8334C24.5471 26.8334 26.0308 27.448 27.1248 28.542C28.2188 29.6359 28.8333 31.1197 28.8333 32.6667C28.8333 32.8878 28.9211 33.0997 29.0774 33.256C29.2337 33.4123 29.4457 33.5001 29.6667 33.5001C29.8877 33.5001 30.0996 33.4123 30.2559 33.256C30.4122 33.0997 30.5 32.8878 30.5 32.6667C30.4978 30.6783 29.7069 28.7719 28.3009 27.3659C26.8948 25.9598 24.9884 25.169 23 25.1667Z" fill="white"/>
</g>
<defs>
<linearGradient id="paint0_linear_237_7935" x1="0.404929" y1="1.57334" x2="48.8585" y2="4.90298" gradientUnits="userSpaceOnUse">
<stop stop-color="#81CEC5"/>
<stop offset="1" stop-color="#82CA8E"/>
</linearGradient>
<clipPath id="clip0_237_7935">
<rect width="20" height="20" fill="white" transform="translate(13 13.5)"/>
</clipPath>
</defs>
</svg>
