<svg width="46" height="47" viewBox="0 0 46 47" fill="none" xmlns="http://www.w3.org/2000/svg">
<rect y="0.5" width="46" height="46" rx="14" fill="url(#paint0_linear_237_7950)"/>
<g clip-path="url(#clip0_237_7950)">
<path d="M23 20.1667C22.3407 20.1667 21.6963 20.3622 21.1481 20.7285C20.5999 21.0948 20.1727 21.6154 19.9204 22.2245C19.6681 22.8336 19.6021 23.5038 19.7307 24.1504C19.8593 24.797 20.1768 25.3909 20.643 25.8571C21.1091 26.3233 21.7031 26.6407 22.3497 26.7694C22.9963 26.898 23.6665 26.832 24.2756 26.5797C24.8847 26.3274 25.4053 25.9001 25.7716 25.352C26.1378 24.8038 26.3333 24.1594 26.3333 23.5001C26.3333 22.616 25.9821 21.7682 25.357 21.1431C24.7319 20.5179 23.884 20.1667 23 20.1667ZM23 25.1667C22.6704 25.1667 22.3481 25.069 22.074 24.8859C21.8 24.7027 21.5863 24.4424 21.4602 24.1379C21.334 23.8333 21.301 23.4982 21.3653 23.1749C21.4297 22.8516 21.5884 22.5547 21.8215 22.3216C22.0546 22.0885 22.3515 21.9297 22.6748 21.8654C22.9981 21.8011 23.3333 21.8341 23.6378 21.9603C23.9423 22.0864 24.2026 22.3 24.3858 22.5741C24.5689 22.8482 24.6667 23.1704 24.6667 23.5001C24.6667 23.9421 24.4911 24.366 24.1785 24.6786C23.8659 24.9912 23.442 25.1667 23 25.1667Z" fill="white"/>
<path d="M30.745 25.0833L30.375 24.87C30.5416 23.9637 30.5416 23.0346 30.375 22.1283L30.745 21.915C31.0295 21.7508 31.2789 21.5323 31.479 21.2717C31.6791 21.0112 31.8258 20.7138 31.911 20.3965C31.9961 20.0792 32.0179 19.7483 31.9751 19.4226C31.9323 19.0969 31.8258 18.7829 31.6617 18.4983C31.4975 18.2138 31.2789 17.9644 31.0184 17.7643C30.7578 17.5643 30.4605 17.4175 30.1432 17.3324C29.8259 17.2473 29.495 17.2255 29.1693 17.2682C28.8436 17.311 28.5295 17.4175 28.245 17.5817L27.8742 17.7958C27.1738 17.1974 26.3689 16.7335 25.5 16.4275V16C25.5 15.337 25.2366 14.7011 24.7678 14.2322C24.2989 13.7634 23.663 13.5 23 13.5C22.337 13.5 21.7011 13.7634 21.2322 14.2322C20.7634 14.7011 20.5 15.337 20.5 16V16.4275C19.6312 16.7346 18.8265 17.1997 18.1267 17.7992L17.7542 17.5833C17.1795 17.2518 16.4967 17.1621 15.856 17.3341C15.2152 17.506 14.669 17.9254 14.3375 18.5C14.006 19.0746 13.9163 19.7574 14.0882 20.3982C14.2601 21.0389 14.6795 21.5851 15.2542 21.9167L15.6242 22.13C15.4576 23.0363 15.4576 23.9654 15.6242 24.8717L15.2542 25.085C14.6795 25.4165 14.2601 25.9627 14.0882 26.6035C13.9163 27.2442 14.006 27.927 14.3375 28.5017C14.669 29.0763 15.2152 29.4957 15.856 29.6676C16.4967 29.8395 17.1795 29.7499 17.7542 29.4183L18.125 29.2042C18.8256 29.8027 19.6308 30.2666 20.5 30.5725V31C20.5 31.663 20.7634 32.2989 21.2322 32.7678C21.7011 33.2366 22.337 33.5 23 33.5C23.663 33.5 24.2989 33.2366 24.7678 32.7678C25.2366 32.2989 25.5 31.663 25.5 31V30.5725C26.3688 30.2654 27.1735 29.8003 27.8733 29.2008L28.2458 29.4158C28.8205 29.7474 29.5033 29.837 30.144 29.6651C30.7848 29.4932 31.331 29.0738 31.6625 28.4992C31.994 27.9245 32.0837 27.2417 31.9118 26.601C31.7399 25.9602 31.3205 25.414 30.7458 25.0825L30.745 25.0833ZM28.6217 21.9367C28.9039 22.9592 28.9039 24.0391 28.6217 25.0617C28.5724 25.2396 28.5836 25.4289 28.6536 25.5998C28.7236 25.7707 28.8484 25.9135 29.0083 26.0058L29.9117 26.5275C30.1032 26.638 30.2429 26.8201 30.3002 27.0336C30.3575 27.2472 30.3276 27.4747 30.2171 27.6663C30.1066 27.8578 29.9245 27.9975 29.711 28.0548C29.4974 28.1121 29.2698 28.0822 29.0783 27.9717L28.1733 27.4483C28.0133 27.3556 27.8269 27.3188 27.6435 27.3437C27.4602 27.3686 27.2904 27.4538 27.1608 27.5858C26.4191 28.343 25.4847 28.8833 24.4583 29.1483C24.2792 29.1944 24.1205 29.2987 24.0072 29.4449C23.8939 29.5911 23.8324 29.7709 23.8325 29.9558V31C23.8325 31.221 23.7447 31.433 23.5884 31.5893C23.4321 31.7455 23.2202 31.8333 22.9992 31.8333C22.7782 31.8333 22.5662 31.7455 22.4099 31.5893C22.2536 31.433 22.1658 31.221 22.1658 31V29.9567C22.1659 29.7717 22.1045 29.592 21.9912 29.4458C21.8779 29.2996 21.7191 29.1952 21.54 29.1492C20.5136 28.8831 19.5794 28.3416 18.8383 27.5833C18.7088 27.4513 18.539 27.3661 18.3556 27.3412C18.1723 27.3163 17.9859 27.3531 17.8258 27.4458L16.9225 27.9683C16.8277 28.0239 16.7228 28.0602 16.6139 28.0751C16.5051 28.09 16.3943 28.0832 16.2881 28.0551C16.1818 28.027 16.0822 27.9782 15.9949 27.9114C15.9076 27.8446 15.8343 27.7613 15.7794 27.6661C15.7244 27.5709 15.6888 27.4658 15.6747 27.3568C15.6605 27.2479 15.668 27.1372 15.6968 27.0311C15.7256 26.925 15.7751 26.8257 15.8424 26.7389C15.9098 26.652 15.9936 26.5793 16.0892 26.525L16.9925 26.0033C17.1525 25.911 17.2772 25.7682 17.3472 25.5973C17.4172 25.4264 17.4284 25.2371 17.3792 25.0592C17.097 24.0366 17.097 22.9567 17.3792 21.9342C17.4276 21.7566 17.4158 21.5679 17.3457 21.3977C17.2756 21.2275 17.1511 21.0853 16.9917 20.9933L16.0883 20.4717C15.8968 20.3612 15.7571 20.1791 15.6998 19.9655C15.6425 19.752 15.6724 19.5244 15.7829 19.3329C15.8934 19.1414 16.0755 19.0016 16.289 18.9444C16.5026 18.8871 16.7302 18.917 16.9217 19.0275L17.8267 19.5508C17.9863 19.6438 18.1723 19.681 18.3554 19.6567C18.5386 19.6324 18.7084 19.548 18.8383 19.4167C19.5801 18.6595 20.5145 18.1192 21.5408 17.8542C21.7205 17.808 21.8797 17.7031 21.993 17.5563C22.1064 17.4094 22.1675 17.2289 22.1667 17.0433V16C22.1667 15.779 22.2545 15.567 22.4108 15.4107C22.567 15.2545 22.779 15.1667 23 15.1667C23.221 15.1667 23.433 15.2545 23.5893 15.4107C23.7455 15.567 23.8333 15.779 23.8333 16V17.0433C23.8332 17.2283 23.8947 17.408 24.008 17.5542C24.1213 17.7004 24.28 17.8048 24.4592 17.8508C25.4858 18.1168 26.4203 18.6582 27.1617 19.4167C27.2912 19.5487 27.4611 19.6339 27.6444 19.6588C27.8277 19.6837 28.0141 19.6469 28.1742 19.5542L29.0775 19.0317C29.1723 18.9761 29.2772 18.9398 29.3861 18.9249C29.495 18.91 29.6057 18.9168 29.712 18.9449C29.8182 18.973 29.9179 19.0218 30.0052 19.0886C30.0925 19.1554 30.1657 19.2387 30.2206 19.3339C30.2756 19.4291 30.3112 19.5342 30.3253 19.6432C30.3395 19.7521 30.332 19.8628 30.3032 19.9689C30.2744 20.075 30.2249 20.1743 30.1576 20.2611C30.0902 20.348 30.0064 20.4207 29.9108 20.475L29.0075 20.9967C28.8484 21.0889 28.7242 21.2312 28.6545 21.4014C28.5847 21.5716 28.5731 21.7601 28.6217 21.9375V21.9367Z" fill="white"/>
</g>
<defs>
<linearGradient id="paint0_linear_237_7950" x1="0.404929" y1="1.57334" x2="48.8585" y2="4.90298" gradientUnits="userSpaceOnUse">
<stop stop-color="#F9B6B2"/>
<stop offset="1" stop-color="#C67093"/>
</linearGradient>
<clipPath id="clip0_237_7950">
<rect width="20" height="20" fill="white" transform="translate(13 13.5)"/>
</clipPath>
</defs>
</svg>
