<svg width="46" height="46" viewBox="0 0 46 46" fill="none" xmlns="http://www.w3.org/2000/svg">
<rect width="46" height="46" rx="14" fill="url(#paint0_linear_237_7922)"/>
<g clip-path="url(#clip0_237_7922)">
<path d="M17.5833 27.1667C18.2737 27.1667 18.8333 26.6071 18.8333 25.9167C18.8333 25.2264 18.2737 24.6667 17.5833 24.6667C16.893 24.6667 16.3333 25.2264 16.3333 25.9167C16.3333 26.6071 16.893 27.1667 17.5833 27.1667Z" fill="white"/>
<path d="M28.8333 15.5H17.1667C16.062 15.5013 15.003 15.9407 14.2218 16.7218C13.4407 17.503 13.0013 18.562 13 19.6667L13 26.3333C13.0013 27.438 13.4407 28.497 14.2218 29.2782C15.003 30.0593 16.062 30.4987 17.1667 30.5H28.8333C29.938 30.4987 30.997 30.0593 31.7782 29.2782C32.5593 28.497 32.9987 27.438 33 26.3333V19.6667C32.9987 18.562 32.5593 17.503 31.7782 16.7218C30.997 15.9407 29.938 15.5013 28.8333 15.5ZM17.1667 17.1667H28.8333C29.4964 17.1667 30.1323 17.4301 30.6011 17.8989C31.0699 18.3677 31.3333 19.0036 31.3333 19.6667H14.6667C14.6667 19.0036 14.9301 18.3677 15.3989 17.8989C15.8677 17.4301 16.5036 17.1667 17.1667 17.1667ZM28.8333 28.8333H17.1667C16.5036 28.8333 15.8677 28.5699 15.3989 28.1011C14.9301 27.6323 14.6667 26.9964 14.6667 26.3333V21.3333H31.3333V26.3333C31.3333 26.9964 31.0699 27.6323 30.6011 28.1011C30.1323 28.5699 29.4964 28.8333 28.8333 28.8333Z" fill="white"/>
</g>
<defs>
<linearGradient id="paint0_linear_237_7922" x1="0.404929" y1="1.07334" x2="48.8585" y2="4.40298" gradientUnits="userSpaceOnUse">
<stop stop-color="#F79F72"/>
<stop offset="1" stop-color="#E37171"/>
</linearGradient>
<clipPath id="clip0_237_7922">
<rect width="20" height="20" fill="white" transform="translate(13 13)"/>
</clipPath>
</defs>
</svg>
