<svg width="20" height="21" viewBox="0 0 20 21" fill="none" xmlns="http://www.w3.org/2000/svg">
<g clip-path="url(#clip0_237_7945)">
<path d="M1.66667 12.1666C2.58714 12.1666 3.33333 11.4204 3.33333 10.4999C3.33333 9.57944 2.58714 8.83325 1.66667 8.83325C0.746192 8.83325 0 9.57944 0 10.4999C0 11.4204 0.746192 12.1666 1.66667 12.1666Z" fill="#606F8D"/>
<path d="M10 12.1666C10.9205 12.1666 11.6667 11.4204 11.6667 10.4999C11.6667 9.57944 10.9205 8.83325 10 8.83325C9.07952 8.83325 8.33333 9.57944 8.33333 10.4999C8.33333 11.4204 9.07952 12.1666 10 12.1666Z" fill="#606F8D"/>
<path d="M18.3333 12.1666C19.2538 12.1666 20 11.4204 20 10.4999C20 9.57944 19.2538 8.83325 18.3333 8.83325C17.4129 8.83325 16.6667 9.57944 16.6667 10.4999C16.6667 11.4204 17.4129 12.1666 18.3333 12.1666Z" fill="#606F8D"/>
</g>
<defs>
<clipPath id="clip0_237_7945">
<rect width="20" height="20" fill="white" transform="translate(0 0.5)"/>
</clipPath>
</defs>
</svg>
