<svg width="16" height="16" viewBox="0 0 16 16" fill="none" xmlns="http://www.w3.org/2000/svg">
<path d="M7.2 8.8001C7.53125 8.8001 7.8 8.44185 7.8 8.0001C7.8 7.55835 7.53125 7.2001 7.2 7.2001C6.86875 7.2001 6.6 7.55835 6.6 8.0001C6.6 8.44185 6.86875 8.8001 7.2 8.8001ZM15.6 13.2001H12.8V4.43635C12.8 3.75485 12.2618 3.2001 11.6 3.2001H9.6V2.4296C9.6 1.9606 9.23025 1.6001 8.8015 1.6001C8.73725 1.6001 8.67175 1.6081 8.60575 1.62535L3.80575 2.86885C3.44975 2.9611 3.2 3.2926 3.2 3.6731V13.2001H0.4C0.179 13.2001 0 13.3791 0 13.6001V14.0001C0 14.2211 0.179 14.4001 0.4 14.4001H15.6C15.821 14.4001 16 14.2211 16 14.0001V13.6001C16 13.3791 15.821 13.2001 15.6 13.2001ZM8.4 13.2001H4.4V3.9546L8.4 2.91835V13.2001ZM11.6 13.2001H9.6V4.4001H11.6V13.2001Z" fill="white"/>
</svg>
