<svg width="164" height="156" viewBox="0 0 164 156" fill="none" xmlns="http://www.w3.org/2000/svg">
<g clip-path="url(#clip0_237_31)">
<path d="M329.045 115.916V-26.1684C329.045 -27.0731 329.4 -28.5431 329.045 -29.3993C327.832 -32.3071 321.413 -33.7503 317.835 -34.6172C307.851 -37.0296 296.473 -36.9435 286.703 -33.9172C277.744 -31.144 270.997 -25.9045 265.509 -19.6043C259.873 -13.1263 256.959 -5.40446 251.457 1.11658C245.889 7.72377 238.833 10.1416 229.378 11.6009C203.098 15.6556 178.835 1.58506 152.367 3.11435C149.807 3.25974 147.254 3.57745 144.775 4.11055C129.511 7.40068 121.912 18.4611 115.989 29.2954C109.08 41.9498 102.192 52.951 90.6936 63.3922C83.0347 70.3441 69.2044 72.9503 64.869 81.9969C61.9207 88.1463 62.4635 95.1305 63.6897 101.517C64.6345 106.449 68.0184 111.01 68.6013 115.911C70.3234 130.45 42.569 135.35 25.4152 134.488C15.9135 134.009 1.97604 133.584 -6.09832 138.188C-17.5566 144.725 -23.0109 157.46 -33.5445 165.042C-45.13 173.383 -66.9409 181.552 -82.8283 178.369V186.985H329.045V115.905V115.916Z" fill="#F3F5FF"/>
<g clip-path="url(#clip1_237_31)">
<path fill-rule="evenodd" clip-rule="evenodd" d="M43.7318 159.792L43.7471 155.79L47.6827 155.883L47.2601 160.447L43.7318 159.792Z" fill="#F4B1B1"/>
<path fill-rule="evenodd" clip-rule="evenodd" d="M43.4014 105.231C42.9342 113.225 41.5758 120.142 42.0014 129.212L43.3568 157.596C43.3568 157.596 45.2455 157.998 46.8621 157.906C48.4788 157.813 48.1837 157.628 48.1837 157.628L51.9671 130.949C51.9671 130.949 52.8231 124.874 54.8239 120.139C56.27 116.721 58.0418 115.735 57.7806 111.762C57.5101 107.647 57.8605 104.459 57.2873 103.037C56.7141 101.616 53.8496 102.186 53.8496 102.186L43.4029 105.228L43.4014 105.231Z" fill="#2A4589"/>
<path fill-rule="evenodd" clip-rule="evenodd" d="M61.1276 159.792L60.7557 155.922L64.6912 156.014L64.6544 160.447L61.1276 159.792Z" fill="#F4B1B1"/>
<path fill-rule="evenodd" clip-rule="evenodd" d="M49.0596 106.14L53.2764 123.04L55.4278 133.103L60.2055 157.61C60.2055 157.61 61.2167 158.065 62.8333 157.972C64.45 157.88 65.266 157.645 65.266 157.645C65.3013 150.408 65.4842 140.678 65.5472 131.932C65.6025 124.24 65.8038 117.4 65.833 111.566C65.8453 109.041 62.9378 101.9 62.9747 101.991L49.0612 106.141L49.0596 106.14Z" fill="#2A4589"/>
<path fill-rule="evenodd" clip-rule="evenodd" d="M49.8802 109.428L50.7239 114.329C56.2546 115.01 62.0327 114.543 65.5841 113.591C65.5887 113.099 65.8299 112.044 65.8315 111.566C65.8346 111.066 65.7208 110.385 65.541 109.613C60.5267 109.584 52.3359 109.529 51.5415 109.475C51.2787 109.457 50.6671 109.441 49.8802 109.428Z" fill="#12143C"/>
<path fill-rule="evenodd" clip-rule="evenodd" d="M43.1601 109.37L42.7575 112.785C46.1168 113.788 50.7608 114.825 57.4363 114.634C57.5823 113.939 57.6084 113.306 57.5439 112.332C57.4932 111.563 57.7022 110.257 57.6837 109.558C54.5842 109.532 51.9748 109.504 51.543 109.473C50.5856 109.407 45.0273 109.378 43.1617 109.37" fill="#12143C"/>
<path fill-rule="evenodd" clip-rule="evenodd" d="M51.1188 136.926L51.9656 130.952C51.9656 130.952 52.4312 127.64 53.4808 124.002L52.6801 118.34L51.0159 132.54L51.1188 136.927V136.926Z" fill="#12143C"/>
<path fill-rule="evenodd" clip-rule="evenodd" d="M50.4688 84.2348C48.0607 89.4503 47.1587 95.1297 40.268 96.1428C35.392 96.2762 24.8546 92.4515 25.5154 90.7924C26.2331 88.9877 23.6759 87.5591 26.4774 87.6107C30.2009 87.6001 39.8362 88.0656 40.6752 88.0065C41.4697 87.9519 44.1498 76.5884 49.8956 74.5198C50.4749 74.1513 52.1653 81.7143 50.4703 84.2333" fill="#B1CBEF"/>
<path fill-rule="evenodd" clip-rule="evenodd" d="M27.7606 93.0292C26.2331 92.1662 25.2972 91.3367 25.5139 90.7907C26.2315 88.9876 23.6744 87.5575 26.4759 87.609C27.0552 87.6075 27.7667 87.6287 28.5551 87.6651C29.0514 88.3582 29.7998 91.1229 28.8809 92.1041C27.9619 93.0853 28.1509 92.7789 27.7606 93.0292Z" fill="white"/>
<path fill-rule="evenodd" clip-rule="evenodd" d="M47.9255 90.1767C46.4748 93.1324 44.5017 95.5179 40.2665 96.1412C36.9241 96.2322 30.6465 94.7111 27.5685 92.9186C28.3261 93.1627 28.3584 93.1718 29.9689 93.695C31.5809 94.2182 38.596 95.4285 41.147 93.9984C43.6964 92.5682 44.6907 87.3225 44.6907 87.3225C44.6907 87.3225 47.0127 89.3153 47.9255 90.1767Z" fill="#91AED8"/>
<path fill-rule="evenodd" clip-rule="evenodd" d="M25.5123 87.4545C25.1773 86.9373 23.8265 84.9067 23.2841 84.6837C23.0075 84.57 22.9921 84.6747 22.9475 84.8278C22.9091 84.9628 22.9537 85.2752 23.052 85.4633C23.258 85.856 23.2503 86.6598 23.3963 86.8585C21.0174 87.7957 18.5341 84.8839 18.3051 86.1988C18.4188 86.4429 18.9259 88.8467 19.1395 89.2076C19.8203 90.3526 20.2798 90.8455 25.3694 91.0836C27.0906 91.164 27.0583 89.4776 26.7325 88.3219L25.5123 87.4545Z" fill="#F4B1B1"/>
<path fill-rule="evenodd" clip-rule="evenodd" d="M66.8933 95.0736C66.1864 99.6869 65.8945 105.186 66.2971 112.373C56.8754 113.97 47.9639 113.5 42.338 111.731C41.9031 105.385 42.2934 76.1668 50.8622 74.1634C53.9587 73.3066 56.3637 73.3839 59.6477 73.7145C62.9731 74.0497 65.1276 74.8231 66.8657 76.5141C67.3482 76.9599 67.8031 77.4998 68.2349 78.114H66.9133V95.1069L66.8949 95.0736H66.8933Z" fill="#B1CBEF"/>
<path fill-rule="evenodd" clip-rule="evenodd" d="M66.9118 95.1053C66.1772 99.7156 66.1219 106.586 66.2956 112.373C57.7068 113.829 49.2194 113.681 43.3 111.988C47.0865 112.42 62.0726 112.793 63.2021 109.211C63.8475 107.163 64.4392 93.3188 65.6148 87.3406C66.4446 88.2399 66.3831 93.6813 66.9118 95.1053Z" fill="#91AED8"/>
<path fill-rule="evenodd" clip-rule="evenodd" d="M51.0005 69.2195C51.6629 70.5207 52.3759 71.4716 53.4117 71.9599L53.3763 73.851L53.0966 74.0846C52.0055 75.2387 53.344 76.8341 54.5872 76.7613C59.4771 76.9994 58.0188 74.8201 58.8348 73.484L58.3615 70.6754C58.5243 70.6663 59.8859 69.9641 60.2378 69.858C60.5882 69.7518 61.1045 69.083 61.1399 68.3778C61.1737 67.6726 60.0703 67.9001 60.0703 67.9001C61.4088 66.0924 62.924 64.6168 60.9585 62.988C58.993 61.3607 54.4797 60.4099 54.4797 60.4099L51.7627 59.4802C52.1085 60.4053 51.646 63.4915 50.9483 65.419C50.3228 67.1479 50.1123 67.4694 51.0021 69.2165" fill="#F4B1B1"/>
<path fill-rule="evenodd" clip-rule="evenodd" d="M57.2627 71.0088C57.2627 71.0088 55.7259 73.6097 54.4643 73.8448C53.2026 74.0799 53.8465 73.907 53.3763 73.8509L53.4116 71.9597C54.2814 72.0977 55.1328 72.0295 57.2627 71.0073" fill="#E98385"/>
<path fill-rule="evenodd" clip-rule="evenodd" d="M62.2755 63.6339C62.9178 59.5241 59.9258 57.8544 56.5573 58.0091C56.2838 58.0212 55.2603 58.2699 54.1385 58.3366C53.8112 58.3563 53.4777 58.3624 53.1627 58.3609C48.6509 58.3488 49.7957 63.3579 51.1926 64.6637C51.3309 64.7926 51.543 62.9849 51.6982 63.1001C51.8611 63.2411 52.0393 63.3685 52.2376 63.4823C54.4966 64.6242 57.0967 63.27 58.4122 64.7986C59.0637 65.5554 58.9976 66.6473 58.2692 68.3337C58.0541 68.8311 57.7667 69.1966 58.6181 68.8069C59.0084 68.6279 59.6508 68.3792 59.8705 68.5536C60.3592 68.9434 60.1133 69.7623 59.723 70.0262C59.5493 70.143 59.2205 70.3189 59.2205 70.3189C62.8103 69.647 63.6509 64.6804 62.2755 63.6309" fill="#2A4589"/>
<path fill-rule="evenodd" clip-rule="evenodd" d="M54.6625 76.2622C55.2419 76.9279 56.2654 77.991 56.8447 78.6568C58.3707 77.2616 59.1667 75.9224 59.9627 73.9737C59.6815 73.6916 59.1144 73.3792 58.8317 73.0986C58.1893 74.3255 57.0014 75.422 54.661 76.2622" fill="#EAF4FF"/>
<path d="M49.914 99.1683L51.9994 103.13C52.9306 101.792 53.8634 100.456 54.7962 99.1182C54.3321 93.5844 54.7501 85.5179 54.8085 78.6661L55.769 77.5742L54.6595 76.2578L53.3548 77.1662L53.9126 78.6449C51.9994 83.3037 50.2306 96.1595 49.9125 99.1683" fill="#0F4884"/>
<path fill-rule="evenodd" clip-rule="evenodd" d="M54.6625 76.2622C54.0094 76.84 52.9414 77.5513 52.2883 78.1291C52.047 76.8172 52.2084 75.3856 52.6371 73.8736L53.3548 73.4915C53.407 74.5515 54.0202 75.4508 54.661 76.2622" fill="#EAF4FF"/>
<path fill-rule="evenodd" clip-rule="evenodd" d="M62.864 87.0132L57.4409 86.5415L57.2919 87.6061L62.7134 88.0808L62.864 87.0132Z" fill="#EAF4FF"/>
<path d="M31.1245 78.0365C32.5321 79.315 32.6243 81.4761 31.3288 82.8652C30.0334 84.2544 27.8435 84.3454 26.4344 83.0669C25.0267 81.7885 24.9345 79.6274 26.23 78.2382C27.5254 76.8491 29.7153 76.7581 31.1229 78.0365M65.2552 110.102L59.8182 105.168L51.8057 97.8942L47.3738 93.8708L44.663 91.411L44.3864 91.1592L41.9108 88.9117L36.0451 83.5871C38.1289 79.6471 37.3743 74.6698 33.9013 71.5184C29.7522 67.7513 23.2948 68.0182 19.4776 72.1129C15.6634 76.2045 15.9339 82.5771 20.0831 86.3442C20.1369 86.3927 20.1906 86.4412 20.2444 86.4883C22.1023 88.1049 24.3967 88.936 26.7048 88.9997C27.1889 89.0133 27.6745 88.9921 28.1555 88.9375C28.8716 88.8571 29.5801 88.7009 30.2685 88.4719C30.6389 88.3491 31.0015 88.2035 31.358 88.0382C31.7315 87.8638 32.0957 87.6666 32.4491 87.4452L33.408 88.3157L41.3575 95.5329L43.0326 97.054L43.303 97.2997L56.4528 109.238L56.7663 109.523L56.9446 109.684L58.9654 111.519L62.108 114.371L64.9494 116.951L66.1173 118.011L68.6129 120.277L69.2399 120.846L69.8008 121.355L70.3556 121.859C71.4205 122.826 73.0925 122.769 74.0821 121.734L74.1113 121.704L74.139 121.674C75.0995 120.611 75.0196 118.965 73.9546 117.998L73.5105 117.594L74.9473 116.052L75.7295 115.213C76.1152 114.799 76.0876 114.149 75.6681 113.768L74.6892 112.881C74.5416 112.746 74.3634 112.662 74.179 112.629C73.8393 112.567 73.4751 112.673 73.2247 112.941L73.051 113.128L72.2427 112.394L72.7682 111.831C72.9619 111.625 72.9465 111.299 72.7375 111.108L72.2488 110.664C72.0398 110.472 71.7094 110.486 71.5158 110.694L70.9918 111.257L70.958 111.228L70.8612 111.146L70.4555 110.799L70.9564 110.26L70.9949 110.219C71.0256 110.186 71.0517 110.151 71.0717 110.113C71.1332 109.996 71.147 109.861 71.1132 109.737C71.0978 109.681 71.0717 109.628 71.0379 109.578C71.0164 109.549 70.9933 109.522 70.9657 109.496L70.477 109.051C70.268 108.86 69.9376 108.876 69.744 109.082L68.6652 110.239L68.1704 110.768L67.1715 111.839L65.2598 110.104L65.2552 110.102Z" fill="#FD9900"/>
<path d="M32.4491 87.4469L33.4081 88.3174L41.3575 95.5346L43.0326 97.0542L43.303 97.2999L56.4528 109.238L56.7663 109.522L56.9446 109.682L58.9654 111.518L62.108 114.37L64.9494 116.95L66.1173 118.01L68.613 120.276L69.2399 120.844L69.8008 121.354L70.3556 121.857C71.2285 122.65 72.5086 122.755 73.4859 122.197L33.8291 86.1335L32.4476 87.4469H32.4491Z" fill="#E96200"/>
<path d="M64.5145 81.564C65.4196 78.3869 66.2787 75.1809 68.4685 78.1124C77.1172 89.6942 69.9899 112.514 67.6202 109.757C66.5384 108.498 64.4331 110.982 64.8925 108.207C65.3597 103.933 66.082 96.0986 65.5011 91.9357C64.765 86.6687 63.0208 86.4246 64.5145 81.5625" fill="#B1CBEF"/>
<path fill-rule="evenodd" clip-rule="evenodd" d="M69.7056 108.774C69.3291 110.67 67.8907 111.812 66.1742 111.794C64.5544 111.777 64.1672 109.827 64.2701 109.067C64.3731 108.307 64.5422 107.382 64.5422 107.382C64.5422 107.382 65.0032 106.922 66.3463 106.95C67.6894 106.977 69.4781 108.063 69.7056 108.774Z" fill="white"/>
<path fill-rule="evenodd" clip-rule="evenodd" d="M64.5483 110.004L64.0105 111.261C63.2621 111.863 63.0285 112.301 62.2017 112.897C61.7868 113.196 61.3934 113.465 61.0738 113.571C60.6097 113.725 61.0492 114.149 61.3535 114.194C62.214 114.32 62.9394 113.879 62.9609 113.936C63.0024 114.074 62.738 114.393 62.4814 114.673C62.423 114.739 62.2371 114.381 62.1817 114.438C62.0142 114.616 62.0158 115.169 62.0404 115.181C64.055 117.365 65.4965 115.99 65.8807 115.6C66.1757 115.3 66.3355 113.349 67.6356 111.294C68.1412 110.239 65.2214 109.696 64.5483 110.004Z" fill="#F4B1B1"/>
<path fill-rule="evenodd" clip-rule="evenodd" d="M32.8794 87.8364C31.103 89.2317 28.8532 90.0658 26.4052 90.0658C20.6578 90.0673 16 85.4691 16 79.7987C16 76.8111 17.2924 74.1223 19.3562 72.2463C15.6711 76.344 15.98 82.618 20.0831 86.3442C20.1369 86.3927 20.1907 86.4412 20.2444 86.4882C22.1023 88.1049 24.3982 88.9359 26.7048 88.9996C27.1889 89.0133 27.6745 88.9921 28.1555 88.9375C28.8716 88.8571 29.5801 88.7009 30.2685 88.4719C30.6389 88.349 31.0015 88.205 31.3581 88.0381C31.7315 87.8637 32.0957 87.6666 32.4491 87.4452L32.8794 87.8364Z" fill="#E96200"/>
<path fill-rule="evenodd" clip-rule="evenodd" d="M31.1245 78.0365C29.7168 76.7581 27.5255 76.8491 26.2315 78.2382C25.9826 78.5052 25.7844 78.8009 25.6384 79.1133C26.9446 77.8242 29.0591 77.7696 30.4314 79.0147C31.5686 80.0475 31.8467 81.6565 31.229 82.9684C31.2628 82.935 31.2966 82.9001 31.3304 82.8652C32.6259 81.4761 32.5337 79.3135 31.126 78.0365" fill="#E96200"/>
</g>
<g clip-path="url(#clip2_237_31)">
<path d="M130.175 37.0903H116.084V57.2324H130.175V37.0903Z" fill="#8C9EF3"/>
<path d="M131.46 34.8691H114.798V38.1981H131.46V34.8691Z" fill="#AEC2FD"/>
<path fill-rule="evenodd" clip-rule="evenodd" d="M141.989 33.0159H211.03L255.753 71.0709H149.215C149.215 82.0602 141.989 38.1156 141.989 33.0159Z" fill="#8C9EF3"/>
<path fill-rule="evenodd" clip-rule="evenodd" d="M98.7867 71.0709L141.99 33.0159L185.191 71.0709H179.309H104.67H98.7867Z" fill="#AEC2FD"/>
<path fill-rule="evenodd" clip-rule="evenodd" d="M179.309 71.0707V162.255H104.67V71.0707L141.989 38.198L179.309 71.0707Z" fill="#D8E4FB"/>
<path d="M154.206 121.171H129.771V162.239H154.206V121.171Z" fill="white"/>
<path d="M152.519 122.754H131.461V162.24H152.519V122.754Z" fill="#024BC8"/>
<path d="M154.206 81.7183H129.771V111.47H154.206V81.7183Z" fill="white"/>
<path d="M152.517 83.3965H131.46V109.794H152.517V83.3965Z" fill="#8C9EF3"/>
<path fill-rule="evenodd" clip-rule="evenodd" d="M142.368 100.711L152.518 90.2566V92.5241L142.368 102.979V100.711Z" fill="#A5C4FF"/>
<path fill-rule="evenodd" clip-rule="evenodd" d="M142.368 104.911L152.518 94.4558V98.6254L142.368 109.081V104.911Z" fill="#A5C4FF"/>
<path d="M152.519 122.405H131.461V162.239H152.519V122.405Z" fill="#D8E4FB"/>
<path fill-rule="evenodd" clip-rule="evenodd" d="M150.609 144.121V162.255H133.313V144.121V124.269H150.609V144.121Z" fill="#8C9EF3"/>
<path fill-rule="evenodd" clip-rule="evenodd" d="M131.46 100.711L141.611 90.2566V92.5241L131.46 102.979V100.711Z" fill="#A5C4FF"/>
<path fill-rule="evenodd" clip-rule="evenodd" d="M131.46 104.911L141.611 94.4558V98.6254L131.46 109.081V104.911Z" fill="#A5C4FF"/>
<path d="M142.833 82.9075H141.144V110.101H142.833V82.9075Z" fill="white"/>
<path d="M155.136 121.171H154.206V162.239H155.136V121.171Z" fill="#8C9EF3"/>
<path d="M155.136 81.7183H154.206V111.47H155.136V81.7183Z" fill="#8C9EF3"/>
</g>
</g>
<defs>
<clipPath id="clip0_237_31">
<path d="M0 0H164V140C164 148.837 156.837 156 148 156H16C7.16345 156 0 148.837 0 140V0Z" fill="white"/>
</clipPath>
<clipPath id="clip1_237_31">
<rect width="60" height="107" fill="white" transform="translate(16 58)"/>
</clipPath>
<clipPath id="clip2_237_31">
<rect width="164" height="153.524" fill="white" transform="translate(0 2.47607)"/>
</clipPath>
</defs>
</svg>
