<svg width="19" height="18" viewBox="0 0 19 18" fill="none" xmlns="http://www.w3.org/2000/svg">
<g clip-path="url(#clip0_237_8482)">
<path d="M6.125 9.75C5.45749 9.75 4.80497 9.55206 4.24995 9.18121C3.69493 8.81036 3.26235 8.28326 3.00691 7.66656C2.75146 7.04986 2.68462 6.37126 2.81485 5.71657C2.94507 5.06189 3.26651 4.46052 3.73851 3.98852C4.21052 3.51651 4.81188 3.19508 5.46657 3.06485C6.12126 2.93463 6.79986 3.00146 7.41656 3.25691C8.03326 3.51235 8.56036 3.94494 8.93121 4.49995C9.30206 5.05497 9.5 5.70749 9.5 6.375C9.49901 7.2698 9.14311 8.12767 8.51039 8.76039C7.87767 9.39311 7.0198 9.74901 6.125 9.75ZM6.125 4.5C5.75416 4.5 5.39165 4.60997 5.08331 4.816C4.77496 5.02202 4.53464 5.31486 4.39273 5.65747C4.25081 6.00008 4.21368 6.37708 4.28603 6.7408C4.35837 7.10451 4.53695 7.4386 4.79917 7.70083C5.0614 7.96305 5.39549 8.14163 5.75921 8.21397C6.12292 8.28632 6.49992 8.24919 6.84253 8.10728C7.18514 7.96536 7.47798 7.72504 7.68401 7.4167C7.89003 7.10835 8 6.74584 8 6.375C8 5.87772 7.80246 5.40081 7.45083 5.04918C7.09919 4.69755 6.62228 4.5 6.125 4.5ZM11.75 17.25V16.875C11.75 15.3832 11.1574 13.9524 10.1025 12.8975C9.04758 11.8426 7.61684 11.25 6.125 11.25C4.63316 11.25 3.20242 11.8426 2.14752 12.8975C1.09263 13.9524 0.5 15.3832 0.5 16.875L0.5 17.25C0.5 17.4489 0.579018 17.6397 0.71967 17.7803C0.860322 17.921 1.05109 18 1.25 18C1.44891 18 1.63968 17.921 1.78033 17.7803C1.92098 17.6397 2 17.4489 2 17.25V16.875C2 15.781 2.4346 14.7318 3.20818 13.9582C3.98177 13.1846 5.03098 12.75 6.125 12.75C7.21902 12.75 8.26823 13.1846 9.04182 13.9582C9.8154 14.7318 10.25 15.781 10.25 16.875V17.25C10.25 17.4489 10.329 17.6397 10.4697 17.7803C10.6103 17.921 10.8011 18 11 18C11.1989 18 11.3897 17.921 11.5303 17.7803C11.671 17.6397 11.75 17.4489 11.75 17.25ZM18.5 13.5C18.5 12.4865 18.2066 11.4947 17.6553 10.6443C17.104 9.79386 16.3183 9.12119 15.3931 8.70748C14.4679 8.29377 13.4427 8.15669 12.4413 8.31281C11.4399 8.46892 10.5051 8.91154 9.74975 9.58725C9.67533 9.65265 9.6146 9.73215 9.57107 9.82115C9.52754 9.91016 9.50208 10.0069 9.49616 10.1058C9.49024 10.2047 9.50397 10.3038 9.53656 10.3974C9.56915 10.4909 9.61996 10.5771 9.68604 10.6509C9.75213 10.7247 9.83219 10.7847 9.92159 10.8274C10.011 10.8701 10.108 10.8947 10.2069 10.8997C10.3059 10.9047 10.4048 10.89 10.4981 10.8566C10.5913 10.8231 10.6771 10.7715 10.7502 10.7048C11.2898 10.2222 11.9576 9.90617 12.6728 9.79475C13.3881 9.68333 14.1203 9.78131 14.7811 10.0769C15.4419 10.3724 16.003 10.8529 16.3967 11.4603C16.7905 12.0677 17 12.7761 17 13.5C17 13.6989 17.079 13.8897 17.2197 14.0303C17.3603 14.171 17.5511 14.25 17.75 14.25C17.9489 14.25 18.1397 14.171 18.2803 14.0303C18.421 13.8897 18.5 13.6989 18.5 13.5ZM13.625 6.75C12.9575 6.75 12.305 6.55206 11.75 6.18121C11.1949 5.81036 10.7624 5.28326 10.5069 4.66656C10.2515 4.04986 10.1846 3.37126 10.3148 2.71657C10.4451 2.06189 10.7665 1.46052 11.2385 0.988516C11.7105 0.516514 12.3119 0.195076 12.9666 0.0648512C13.6213 -0.0653739 14.2999 0.00146234 14.9166 0.256908C15.5333 0.512354 16.0604 0.944936 16.4312 1.49995C16.8021 2.05497 17 2.70749 17 3.375C16.999 4.2698 16.6431 5.12767 16.0104 5.76039C15.3777 6.39311 14.5198 6.74901 13.625 6.75ZM13.625 1.5C13.2542 1.5 12.8916 1.60997 12.5833 1.816C12.275 2.02202 12.0346 2.31486 11.8927 2.65747C11.7508 3.00008 11.7137 3.37708 11.786 3.7408C11.8584 4.10451 12.037 4.4386 12.2992 4.70083C12.5614 4.96305 12.8955 5.14163 13.2592 5.21397C13.6229 5.28632 13.9999 5.24919 14.3425 5.10728C14.6851 4.96536 14.978 4.72504 15.184 4.4167C15.39 4.10835 15.5 3.74584 15.5 3.375C15.5 2.87772 15.3025 2.40081 14.9508 2.04918C14.5992 1.69755 14.1223 1.5 13.625 1.5Z" fill="#2A3855"/>
</g>
<defs>
<clipPath id="clip0_237_8482">
<rect width="18" height="18" fill="white" transform="translate(0.5)"/>
</clipPath>
</defs>
</svg>
