<svg width="16" height="16" viewBox="0 0 16 16" fill="none" xmlns="http://www.w3.org/2000/svg">
<g clip-path="url(#clip0_333_15502)">
<path d="M12.6667 0H3.33333C2.4496 0.00105857 1.60237 0.352588 0.97748 0.97748C0.352588 1.60237 0.00105857 2.4496 0 3.33333L0 12.6667C0.00105857 13.5504 0.352588 14.3976 0.97748 15.0225C1.60237 15.6474 2.4496 15.9989 3.33333 16H12.6667C13.5504 15.9989 14.3976 15.6474 15.0225 15.0225C15.6474 14.3976 15.9989 13.5504 16 12.6667V3.33333C15.9989 2.4496 15.6474 1.60237 15.0225 0.97748C14.3976 0.352588 13.5504 0.00105857 12.6667 0ZM3.33333 1.33333H12.6667C13.1971 1.33333 13.7058 1.54405 14.0809 1.91912C14.456 2.29419 14.6667 2.8029 14.6667 3.33333V12.6667C14.6655 12.9637 14.5971 13.2565 14.4667 13.5233L8.358 7.41467C8.04846 7.10504 7.68096 6.85944 7.27648 6.69186C6.87201 6.52429 6.43848 6.43805 6.00067 6.43805C5.56285 6.43805 5.12933 6.52429 4.72485 6.69186C4.32038 6.85944 3.95287 7.10504 3.64333 7.41467L1.33333 9.724V3.33333C1.33333 2.8029 1.54405 2.29419 1.91912 1.91912C2.29419 1.54405 2.8029 1.33333 3.33333 1.33333ZM3.33333 14.6667C2.8029 14.6667 2.29419 14.456 1.91912 14.0809C1.54405 13.7058 1.33333 13.1971 1.33333 12.6667V11.6093L4.58533 8.35733C4.77107 8.17148 4.9916 8.02405 5.23434 7.92346C5.47707 7.82287 5.73725 7.77109 6 7.77109C6.26275 7.77109 6.52293 7.82287 6.76566 7.92346C7.0084 8.02405 7.22893 8.17148 7.41467 8.35733L13.5233 14.4667C13.2565 14.5971 12.9637 14.6655 12.6667 14.6667H3.33333Z" fill="#2A3855"/>
<path d="M10.6667 6.99992C11.1282 6.99992 11.5793 6.86307 11.963 6.60668C12.3468 6.35029 12.6458 5.98588 12.8224 5.55951C12.999 5.13315 13.0452 4.664 12.9552 4.21138C12.8652 3.75875 12.6429 3.34299 12.3166 3.01667C11.9903 2.69035 11.5745 2.46812 11.1219 2.37809C10.6693 2.28806 10.2001 2.33426 9.77378 2.51087C9.34742 2.68747 8.983 2.98654 8.72661 3.37026C8.47022 3.75397 8.33337 4.2051 8.33337 4.66659C8.33337 5.28542 8.57921 5.87892 9.01679 6.3165C9.45438 6.75409 10.0479 6.99992 10.6667 6.99992ZM10.6667 3.66659C10.8645 3.66659 11.0578 3.72524 11.2223 3.83512C11.3867 3.945 11.5149 4.10118 11.5906 4.2839C11.6663 4.46663 11.6861 4.6677 11.6475 4.86168C11.6089 5.05566 11.5137 5.23384 11.3738 5.37369C11.234 5.51355 11.0558 5.60879 10.8618 5.64737C10.6678 5.68596 10.4668 5.66615 10.284 5.59047C10.1013 5.51478 9.94512 5.38661 9.83524 5.22216C9.72536 5.05771 9.66671 4.86437 9.66671 4.66659C9.66671 4.40137 9.77206 4.14702 9.9596 3.95948C10.1471 3.77194 10.4015 3.66659 10.6667 3.66659Z" fill="#2A3855"/>
</g>
<defs>
<clipPath id="clip0_333_15502">
<rect width="16" height="16" fill="white"/>
</clipPath>
</defs>
</svg>
