<svg width="24" height="24" viewBox="0 0 24 24" fill="none" xmlns="http://www.w3.org/2000/svg">
<path d="M20.625 10.875H13.125V3.375C13.125 3.16781 12.9572 3 12.75 3H11.25C11.0428 3 10.875 3.16781 10.875 3.375V10.875H3.375C3.16781 10.875 3 11.0428 3 11.25V12.75C3 12.9572 3.16781 13.125 3.375 13.125H10.875V20.625C10.875 20.8322 11.0428 21 11.25 21H12.75C12.9572 21 13.125 20.8322 13.125 20.625V13.125H20.625C20.8322 13.125 21 12.9572 21 12.75V11.25C21 11.0428 20.8322 10.875 20.625 10.875Z" fill="#2A3855"/>
</svg>
