<svg width="16" height="16" viewBox="0 0 16 16" fill="none" xmlns="http://www.w3.org/2000/svg">
<g clip-path="url(#clip0_411_23581)">
<path d="M8 10.625C7.51675 10.625 7.125 11.0168 7.125 11.5C7.125 11.9832 7.51675 12.375 8 12.375C8.48325 12.375 8.875 11.9832 8.875 11.5C8.875 11.0168 8.48325 10.625 8 10.625ZM8.23969 9.875H7.73969C7.53259 9.875 7.36469 9.70709 7.36469 9.5V9.48809C7.36469 7.28987 9.78469 7.5 9.78469 6.13159C9.78469 5.50609 9.22966 4.875 7.98969 4.875C7.07894 4.875 6.60641 5.17653 6.13934 5.77163C6.01722 5.92725 5.79391 5.95897 5.63159 5.84587L5.22116 5.55994C5.04537 5.43747 5.00678 5.19209 5.1385 5.02316C5.80181 4.17231 6.58881 3.625 7.98969 3.625C9.62469 3.625 11.0347 4.55472 11.0347 6.13159C11.0347 8.23828 8.61469 8.12687 8.61469 9.48809V9.5C8.61469 9.70709 8.44678 9.875 8.23969 9.875ZM8 1.25C11.7069 1.25 14.75 4.25234 14.75 8C14.75 11.7278 11.7309 14.75 8 14.75C4.27362 14.75 1.25 11.7324 1.25 8C1.25 4.27491 4.26881 1.25 8 1.25ZM8 0.25C3.72009 0.25 0.25 3.72134 0.25 8C0.25 12.2812 3.72009 15.75 8 15.75C12.2799 15.75 15.75 12.2812 15.75 8C15.75 3.72134 12.2799 0.25 8 0.25Z" fill="#AFB7C6"/>
</g>
<defs>
<clipPath id="clip0_411_23581">
<rect width="16" height="16" fill="white"/>
</clipPath>
</defs>
</svg>
