<svg width="19" height="18" viewBox="0 0 19 18" fill="none" xmlns="http://www.w3.org/2000/svg">
<g clip-path="url(#clip0_237_8476)">
<path d="M18.2803 16.7198L17.4725 15.9121L16.175 14.6168L18.2668 12.5251C18.3558 12.4359 18.4209 12.3257 18.4561 12.2047C18.4913 12.0837 18.4955 11.9558 18.4682 11.8328C18.4409 11.7098 18.3831 11.5956 18.3 11.5008C18.217 11.406 18.1114 11.3337 17.993 11.2906L11.2662 8.85006C10.9983 8.75321 10.7083 8.73468 10.4302 8.79663C10.1521 8.85858 9.89743 8.99845 9.69593 9.19988C9.49443 9.4013 9.35446 9.65594 9.2924 9.93401C9.23034 10.2121 9.24876 10.5021 9.3455 10.7701L11.7928 17.4968C11.8357 17.6153 11.9079 17.721 12.0025 17.8043C12.0971 17.8875 12.2112 17.9456 12.3343 17.9731C12.3877 17.9847 12.4423 17.9905 12.497 17.9903C12.6959 17.9903 12.8866 17.9112 13.0272 17.7706L15.1168 15.6751L16.412 16.9703L17.2198 17.7781C17.3612 17.9147 17.5507 17.9903 17.7473 17.9886C17.9439 17.9869 18.1321 17.908 18.2711 17.7689C18.4102 17.6299 18.489 17.4418 18.4908 17.2451C18.4925 17.0485 18.4169 16.859 18.2803 16.7176V16.7198ZM12.8 15.8738L10.757 10.2563L16.3745 12.2993L12.8 15.8738Z" fill="#2A3855"/>
<path d="M8 15C6.51664 15 5.0666 14.5601 3.83323 13.736C2.59986 12.9119 1.63856 11.7406 1.07091 10.3701C0.50325 8.99968 0.354725 7.49168 0.644114 6.03683C0.933503 4.58197 1.64781 3.2456 2.6967 2.1967C3.7456 1.14781 5.08197 0.433503 6.53683 0.144114C7.99168 -0.145275 9.49968 0.00324963 10.8701 0.570907C12.2406 1.13856 13.4119 2.09986 14.236 3.33323C15.0601 4.5666 15.5 6.01664 15.5 7.5C15.5 7.69892 15.421 7.88968 15.2803 8.03033C15.1397 8.17099 14.9489 8.25 14.75 8.25C14.5511 8.25 14.3603 8.17099 14.2197 8.03033C14.079 7.88968 14 7.69892 14 7.5C14 6.31332 13.6481 5.15328 12.9888 4.16658C12.3295 3.17989 11.3925 2.41085 10.2961 1.95673C9.19975 1.5026 7.99335 1.38378 6.82946 1.61529C5.66558 1.8468 4.59648 2.41825 3.75736 3.25736C2.91825 4.09648 2.3468 5.16558 2.11529 6.32946C1.88378 7.49335 2.0026 8.69975 2.45673 9.7961C2.91085 10.8925 3.67989 11.8295 4.66658 12.4888C5.65328 13.1481 6.81332 13.5 8 13.5C8.19892 13.5 8.38968 13.579 8.53033 13.7197C8.67099 13.8603 8.75 14.0511 8.75 14.25C8.75 14.4489 8.67099 14.6397 8.53033 14.7803C8.38968 14.921 8.19892 15 8 15Z" fill="#2A3855"/>
<path d="M6.563 11.715C6.46443 11.7151 6.36682 11.6957 6.27575 11.658C5.59239 11.3742 4.98957 10.9262 4.52066 10.3538C4.05176 9.78138 3.73125 9.10216 3.58752 8.3763C3.44378 7.65044 3.48126 6.90033 3.69664 6.19241C3.91201 5.4845 4.29863 4.84061 4.82226 4.31778C5.34589 3.79496 5.99037 3.40932 6.69861 3.19503C7.40686 2.98074 8.15702 2.94441 8.88267 3.08925C9.60831 3.2341 10.287 3.55565 10.8587 4.02542C11.4304 4.4952 11.8775 5.09871 12.1602 5.7825C12.1999 5.87386 12.2209 5.9722 12.2222 6.07177C12.2234 6.17135 12.2048 6.27018 12.1674 6.36248C12.13 6.45479 12.0746 6.53872 12.0045 6.6094C11.9343 6.68007 11.8508 6.73607 11.7588 6.77411C11.6667 6.81216 11.568 6.8315 11.4685 6.831C11.3689 6.8305 11.2704 6.81018 11.1787 6.77121C11.0871 6.73224 11.0041 6.67541 10.9347 6.60404C10.8652 6.53267 10.8107 6.44818 10.7742 6.3555C10.5853 5.90006 10.287 5.4982 9.90574 5.18551C9.52448 4.87281 9.07202 4.65891 8.5884 4.56273C8.10479 4.46655 7.60492 4.49107 7.13303 4.6341C6.66114 4.77713 6.23178 5.03428 5.88295 5.38278C5.53412 5.73128 5.27656 6.16039 5.13308 6.63214C4.98959 7.10389 4.9646 7.60373 5.06032 8.08744C5.15603 8.57116 5.3695 9.02382 5.68183 9.40537C5.99416 9.78693 6.39573 10.0856 6.851 10.275C7.01144 10.3414 7.14388 10.4614 7.22571 10.6146C7.30753 10.7677 7.33369 10.9445 7.2997 11.1148C7.26572 11.2851 7.1737 11.4383 7.03935 11.5483C6.905 11.6583 6.73664 11.7183 6.563 11.718V11.715Z" fill="#2A3855"/>
</g>
<defs>
<clipPath id="clip0_237_8476">
<rect width="18" height="18" fill="white" transform="translate(0.5)"/>
</clipPath>
</defs>
</svg>
