<svg width="164" height="156" viewBox="0 0 164 156" fill="none" xmlns="http://www.w3.org/2000/svg">
<g clip-path="url(#clip0_237_9094)">
<path d="M329.045 115.916V-26.1684C329.045 -27.0731 329.4 -28.5431 329.045 -29.3993C327.832 -32.3071 321.413 -33.7503 317.835 -34.6172C307.851 -37.0296 296.473 -36.9435 286.703 -33.9172C277.744 -31.144 270.997 -25.9045 265.509 -19.6043C259.873 -13.1263 256.959 -5.40446 251.457 1.11658C245.889 7.72377 238.833 10.1416 229.378 11.6009C203.098 15.6556 178.835 1.58506 152.367 3.11435C149.807 3.25974 147.254 3.57745 144.775 4.11055C129.511 7.40068 121.912 18.4611 115.989 29.2954C109.08 41.9498 102.192 52.951 90.6936 63.3922C83.0346 70.3441 69.2044 72.9503 64.869 81.9969C61.9207 88.1463 62.4634 95.1305 63.6897 101.517C64.6345 106.449 68.0183 111.01 68.6013 115.911C70.3234 130.45 42.569 135.35 25.4152 134.488C15.9135 134.009 1.97604 133.584 -6.09833 138.188C-17.5566 144.725 -23.0109 157.46 -33.5445 165.042C-45.13 173.383 -66.9409 181.552 -82.8283 178.369V186.985H329.045V115.905V115.916Z" fill="#F3F5FF"/>
<g clip-path="url(#clip1_237_9094)">
<path d="M78.3118 90H15V117.833H78.3118V90Z" fill="#8C9EF3"/>
<path d="M23.1589 158H23.0666C22.7925 158 22.5781 157.764 22.5998 157.492L26.0577 117.833H28.4679L23.8239 157.405C23.7832 157.745 23.4955 158 23.1535 158H23.1589Z" fill="#AEC2FD"/>
<path d="M69.7512 158H69.8434C70.1176 158 70.332 157.764 70.3103 157.492L66.8524 117.833H64.4422L69.0862 157.405C69.1269 157.745 69.4146 158 69.7566 158H69.7512Z" fill="#AEC2FD"/>
<path d="M24.1333 107.561L25.3683 106.093C26.4866 107.062 27.6048 107.61 29.0569 107.61C30.3245 107.61 31.1252 107.027 31.1252 106.109C31.1252 105.275 30.6583 104.825 28.4897 104.306C26.0034 103.722 24.6002 102.986 24.6002 100.801C24.6002 98.7971 26.2694 97.4124 28.5874 97.4124C30.2892 97.4124 31.6409 97.9309 32.827 98.8812L31.725 100.434C30.6746 99.6496 29.6215 99.2315 28.5548 99.2315C27.3524 99.2315 26.6521 99.8505 26.6521 100.651C26.6521 101.553 27.1868 101.952 29.4233 102.487C31.8933 103.087 33.1771 103.972 33.1771 105.943C33.1771 108.129 31.459 109.432 29.0054 109.432C27.2194 109.432 25.5339 108.816 24.1333 107.561Z" fill="white"/>
<path d="M39.4877 97.4966H41.3903L46.531 109.264H44.3624L43.1763 106.443H37.6528L36.4504 109.264H34.3469L39.4877 97.4966ZM42.4244 104.624L40.4051 99.951L38.402 104.624H42.4244Z" fill="white"/>
<path d="M48.5314 97.5808H50.5834V107.396H56.7229V109.267H48.5287V97.5808H48.5314Z" fill="white"/>
<path d="M58.8617 97.5808H67.5228V99.4162H60.9137V102.454H66.771V104.29H60.9137V107.429H67.6042V109.264H58.859V97.5808H58.8617Z" fill="white"/>
<path d="M78.3118 90L87 104.624L78.3118 117.833V90Z" fill="#8C9EF3"/>
</g>
<g clip-path="url(#clip2_237_9094)">
<path d="M130.175 37.0903H116.084V57.2324H130.175V37.0903Z" fill="#8C9EF3"/>
<path d="M131.46 34.8691H114.798V38.1981H131.46V34.8691Z" fill="#AEC2FD"/>
<path fill-rule="evenodd" clip-rule="evenodd" d="M141.989 33.0159H211.03L255.753 71.0709H149.215C149.215 82.0602 141.989 38.1156 141.989 33.0159Z" fill="#8C9EF3"/>
<path fill-rule="evenodd" clip-rule="evenodd" d="M98.7867 71.0709L141.99 33.0159L185.191 71.0709H179.309H104.67H98.7867Z" fill="#AEC2FD"/>
<path fill-rule="evenodd" clip-rule="evenodd" d="M179.309 71.0707V162.255H104.67V71.0707L141.989 38.198L179.309 71.0707Z" fill="#D8E4FB"/>
<path d="M154.206 121.171H129.771V162.239H154.206V121.171Z" fill="white"/>
<path d="M152.519 122.754H131.461V162.24H152.519V122.754Z" fill="#024BC8"/>
<path d="M154.206 81.7183H129.771V111.47H154.206V81.7183Z" fill="white"/>
<path d="M152.517 83.3965H131.46V109.794H152.517V83.3965Z" fill="#8C9EF3"/>
<path fill-rule="evenodd" clip-rule="evenodd" d="M142.368 100.711L152.518 90.2566V92.5241L142.368 102.979V100.711Z" fill="#A5C4FF"/>
<path fill-rule="evenodd" clip-rule="evenodd" d="M142.368 104.911L152.518 94.4558V98.6254L142.368 109.081V104.911Z" fill="#A5C4FF"/>
<path d="M152.519 122.405H131.461V162.239H152.519V122.405Z" fill="#D8E4FB"/>
<path fill-rule="evenodd" clip-rule="evenodd" d="M150.609 144.121V162.255H133.313V144.121V124.269H150.609V144.121Z" fill="#8C9EF3"/>
<path fill-rule="evenodd" clip-rule="evenodd" d="M131.46 100.711L141.611 90.2566V92.5241L131.46 102.979V100.711Z" fill="#A5C4FF"/>
<path fill-rule="evenodd" clip-rule="evenodd" d="M131.46 104.911L141.611 94.4558V98.6254L131.46 109.081V104.911Z" fill="#A5C4FF"/>
<path d="M142.833 82.9075H141.144V110.101H142.833V82.9075Z" fill="white"/>
<path d="M155.136 121.171H154.206V162.239H155.136V121.171Z" fill="#8C9EF3"/>
<path d="M155.136 81.7183H154.206V111.47H155.136V81.7183Z" fill="#8C9EF3"/>
</g>
</g>
<defs>
<clipPath id="clip0_237_9094">
<path d="M0 0H164V140C164 148.837 156.837 156 148 156H16C7.16345 156 0 148.837 0 140V0Z" fill="white"/>
</clipPath>
<clipPath id="clip1_237_9094">
<rect width="72" height="68" fill="white" transform="translate(15 90)"/>
</clipPath>
<clipPath id="clip2_237_9094">
<rect width="164" height="153.524" fill="white" transform="translate(0 2.47607)"/>
</clipPath>
</defs>
</svg>
