<svg width="14" height="14" viewBox="0 0 14 14" fill="none" xmlns="http://www.w3.org/2000/svg">
<g clip-path="url(#clip0_237_7477)">
<path d="M11.2776 8.55565C10.8365 8.55601 10.4022 8.66368 10.012 8.86938C9.62189 9.07507 9.28765 9.37261 9.03816 9.73632L5.24125 8.0219C5.51093 7.37069 5.51198 6.63922 5.24416 5.98723L9.03583 4.26407C9.40559 4.79884 9.95477 5.18338 10.5838 5.34793C11.2127 5.51248 11.8799 5.44614 12.4642 5.16094C13.0484 4.87575 13.5111 4.39059 13.7683 3.79347C14.0255 3.19635 14.0602 2.52683 13.866 1.90633C13.6719 1.28584 13.2618 0.75549 12.7101 0.411474C12.1584 0.0674584 11.5017 -0.0674325 10.8591 0.0312696C10.2164 0.129972 9.63048 0.455729 9.20747 0.949452C8.78445 1.44317 8.5524 2.07216 8.55341 2.72232C8.55588 2.8762 8.5715 3.02959 8.60008 3.18082L4.56925 5.01248C4.18211 4.64978 3.69746 4.40806 3.17483 4.31701C2.6522 4.22597 2.11436 4.28957 1.62738 4.5C1.14041 4.71043 0.725503 5.05853 0.433644 5.50153C0.141785 5.94453 -0.0143155 6.46313 -0.0154811 6.99363C-0.0166467 7.52413 0.137174 8.04341 0.427083 8.48769C0.716992 8.93196 1.13036 9.28188 1.61641 9.49445C2.10246 9.70702 2.64002 9.77299 3.16304 9.68424C3.68606 9.59549 4.17177 9.3559 4.5605 8.9949L8.60183 10.8196C8.57376 10.9707 8.55834 11.1238 8.55575 11.2775C8.55563 11.816 8.71521 12.3424 9.01431 12.7902C9.31341 13.238 9.73859 13.587 10.2361 13.7931C10.7336 13.9993 11.281 14.0532 11.8091 13.9482C12.3373 13.8432 12.8224 13.5839 13.2032 13.2031C13.584 12.8223 13.8433 12.3372 13.9483 11.809C14.0533 11.2809 13.9994 10.7335 13.7932 10.236C13.5871 9.73849 13.2381 9.31332 12.7903 9.01422C12.3425 8.71512 11.8161 8.55554 11.2776 8.55565ZM11.2776 1.16657C11.5853 1.16645 11.8861 1.2576 12.1421 1.42847C12.398 1.59935 12.5975 1.84229 12.7153 2.12655C12.8332 2.41082 12.8641 2.72365 12.8041 3.02547C12.7441 3.3273 12.596 3.60456 12.3785 3.82219C12.1609 4.03983 11.8837 4.18806 11.5819 4.24813C11.2801 4.30821 10.9672 4.27743 10.6829 4.1597C10.3986 4.04197 10.1556 3.84256 9.98464 3.58671C9.81367 3.33085 9.72241 3.03004 9.72241 2.72232C9.72272 2.3099 9.88665 1.91446 10.1782 1.62278C10.4698 1.33111 10.8652 1.16703 11.2776 1.16657ZM2.72241 8.55565C2.41469 8.55577 2.11384 8.46462 1.85793 8.29374C1.60201 8.12287 1.40251 7.87993 1.28467 7.59567C1.16683 7.3114 1.13594 6.99857 1.1959 6.69675C1.25586 6.39492 1.40399 6.11766 1.62154 5.90003C1.83909 5.68239 2.1163 5.53416 2.4181 5.47409C2.71991 5.41401 3.03274 5.44479 3.31705 5.56252C3.60136 5.68025 3.84437 5.87966 4.01535 6.13551C4.18632 6.39137 4.27758 6.69218 4.27758 6.9999C4.27712 7.41227 4.11314 7.80762 3.82161 8.09927C3.53007 8.39091 3.13478 8.55503 2.72241 8.55565ZM11.2776 12.8332C10.9699 12.8332 10.6691 12.742 10.4133 12.571C10.1574 12.4001 9.958 12.1571 9.84025 11.8728C9.7225 11.5886 9.69169 11.2758 9.75172 10.974C9.81175 10.6722 9.95992 10.395 10.1775 10.1774C10.3951 9.95983 10.6723 9.81166 10.9741 9.75163C11.2759 9.6916 11.5887 9.72241 11.8729 9.84016C12.1572 9.95791 12.4002 10.1573 12.5711 10.4132C12.7421 10.669 12.8333 10.9698 12.8333 11.2775C12.833 11.69 12.669 12.0855 12.3773 12.3772C12.0856 12.6689 11.6901 12.8329 11.2776 12.8332Z" fill="#C7C7C7"/>
</g>
<defs>
<clipPath id="clip0_237_7477">
<rect width="14" height="14" fill="white"/>
</clipPath>
</defs>
</svg>
