<svg width="16" height="16" viewBox="0 0 16 16" fill="none" xmlns="http://www.w3.org/2000/svg">
<g clip-path="url(#clip0_237_16845)">
<path d="M12.8887 9.77801C12.3846 9.77842 11.8882 9.90148 11.4423 10.1366C10.9964 10.3716 10.6145 10.7117 10.3293 11.1273L5.99 9.16801C6.2982 8.42377 6.2994 7.5878 5.99333 6.84268L10.3267 4.87335C10.7492 5.48452 11.3769 5.92399 12.0957 6.11204C12.8146 6.3001 13.577 6.22428 14.2447 5.89835C14.9125 5.57241 15.4413 5.01794 15.7352 4.33552C16.0292 3.6531 16.0688 2.88793 15.8469 2.17879C15.625 1.46966 15.1563 0.863543 14.5258 0.470383C13.8953 0.0772217 13.1448 -0.0769393 12.4104 0.0358631C11.6759 0.148666 11.0063 0.52096 10.5228 1.08521C10.0394 1.64947 9.77418 2.36831 9.77533 3.11135C9.77815 3.28721 9.796 3.46252 9.82866 3.63535L5.222 5.72868C4.77956 5.31416 4.22567 5.0379 3.62838 4.93385C3.03109 4.8298 2.41641 4.90249 1.85987 5.14298C1.30332 5.38348 0.829146 5.7813 0.495593 6.28759C0.16204 6.79387 -0.0163606 7.38656 -0.0176927 7.99285C-0.0190248 8.59913 0.15677 9.1926 0.488095 9.70034C0.81942 10.2081 1.29184 10.608 1.84733 10.8509C2.40281 11.0939 3.01716 11.1693 3.6149 11.0678C4.21264 10.9664 4.76774 10.6926 5.212 10.28L9.83066 12.3653C9.79858 12.538 9.78096 12.7131 9.778 12.8887C9.77786 13.5041 9.96025 14.1057 10.3021 14.6175C10.6439 15.1293 11.1298 15.5281 11.6984 15.7637C12.2669 15.9993 12.8926 16.061 13.4962 15.9409C14.0998 15.8209 14.6542 15.5246 15.0894 15.0894C15.5245 14.6542 15.8209 14.0998 15.9409 13.4962C16.0609 12.8926 15.9993 12.2669 15.7637 11.6984C15.5281 11.1298 15.1292 10.6439 14.6175 10.3021C14.1057 9.96026 13.5041 9.77788 12.8887 9.77801ZM12.8887 1.33335C13.2403 1.33321 13.5842 1.43738 13.8766 1.63267C14.1691 1.82796 14.3971 2.1056 14.5318 2.43047C14.6665 2.75535 14.7018 3.11287 14.6332 3.45781C14.5647 3.80275 14.3954 4.11962 14.1468 4.36835C13.8982 4.61707 13.5814 4.78648 13.2364 4.85513C12.8915 4.92379 12.534 4.88862 12.2091 4.75407C11.8841 4.61951 11.6064 4.39162 11.411 4.09922C11.2156 3.80681 11.1113 3.46303 11.1113 3.11135C11.1117 2.64001 11.299 2.18808 11.6322 1.85474C11.9655 1.52139 12.4173 1.33388 12.8887 1.33335ZM3.11133 9.77801C2.75965 9.77814 2.41582 9.67398 2.12334 9.47869C1.83087 9.2834 1.60287 9.00576 1.4682 8.68089C1.33352 8.35601 1.29822 7.99849 1.36674 7.65355C1.43527 7.30861 1.60456 6.99174 1.85319 6.74301C2.10182 6.49429 2.41863 6.32488 2.76355 6.25623C3.10846 6.18757 3.46599 6.22274 3.79092 6.35729C4.11585 6.49184 4.39357 6.71973 4.58897 7.01214C4.78437 7.30454 4.88866 7.64833 4.88866 8.00001C4.88813 8.47129 4.70073 8.92312 4.36755 9.25643C4.03437 9.58974 3.58261 9.77731 3.11133 9.77801ZM12.8887 14.6667C12.537 14.6667 12.1932 14.5624 11.9009 14.367C11.6085 14.1717 11.3806 13.894 11.246 13.5691C11.1114 13.2442 11.0762 12.8867 11.1448 12.5418C11.2134 12.1969 11.3828 11.8801 11.6314 11.6314C11.8801 11.3828 12.1969 11.2134 12.5418 11.1448C12.8867 11.0762 13.2442 11.1115 13.5691 11.246C13.894 11.3806 14.1716 11.6085 14.367 11.9009C14.5624 12.1933 14.6667 12.537 14.6667 12.8887C14.6663 13.3601 14.4789 13.8122 14.1455 14.1455C13.8121 14.4789 13.3601 14.6663 12.8887 14.6667Z" fill="#2A3855"/>
</g>
<defs>
<clipPath id="clip0_237_16845">
<rect width="16" height="16" fill="white"/>
</clipPath>
</defs>
</svg>
