<svg width="16" height="16" viewBox="0 0 16 16" fill="none" xmlns="http://www.w3.org/2000/svg">
<g clip-path="url(#clip0_411_23577)">
<path d="M8 1.25C11.7069 1.25 14.75 4.25234 14.75 8C14.75 11.7278 11.7309 14.75 8 14.75C4.27362 14.75 1.25 11.7324 1.25 8C1.25 4.27491 4.26881 1.25 8 1.25ZM8 0.25C3.72009 0.25 0.25 3.72134 0.25 8C0.25 12.2812 3.72009 15.75 8 15.75C12.2799 15.75 15.75 12.2812 15.75 8C15.75 3.72134 12.2799 0.25 8 0.25ZM6.875 11H7.25V7.25H6.875C6.66791 7.25 6.5 7.08209 6.5 6.875V6.625C6.5 6.41791 6.66791 6.25 6.875 6.25H8.375C8.58209 6.25 8.75 6.41791 8.75 6.625V11H9.125C9.33209 11 9.5 11.1679 9.5 11.375V11.625C9.5 11.8321 9.33209 12 9.125 12H6.875C6.66791 12 6.5 11.8321 6.5 11.625V11.375C6.5 11.1679 6.66791 11 6.875 11ZM8 3.5C7.44772 3.5 7 3.94772 7 4.5C7 5.05228 7.44772 5.5 8 5.5C8.55228 5.5 9 5.05228 9 4.5C9 3.94772 8.55228 3.5 8 3.5Z" fill="#AFB7C6"/>
</g>
<defs>
<clipPath id="clip0_411_23577">
<rect width="16" height="16" fill="white"/>
</clipPath>
</defs>
</svg>
