<svg width="175" height="126" viewBox="0 0 175 126" fill="none" xmlns="http://www.w3.org/2000/svg">
<g clip-path="url(#clip0_237_16275)">
<g opacity="0.22">
<path d="M178.646 120.796V2.44993C178.646 1.69642 178.885 0.471968 178.646 -0.241174C177.832 -2.66317 173.522 -3.86519 171.12 -4.5873C164.417 -6.59666 156.778 -6.5249 150.219 -4.00423C144.204 -1.69437 139.674 2.6697 135.99 7.91735C132.206 13.313 130.249 19.7447 126.556 25.1763C122.818 30.6796 118.08 32.6934 111.733 33.9089C94.0888 37.2862 77.7991 25.5665 60.0292 26.8403C58.3107 26.9614 56.5967 27.226 54.9322 27.67C44.6842 30.4105 39.5826 39.623 35.6058 48.6472C30.9676 59.1873 26.343 68.3505 18.6232 77.0473C13.4812 82.8376 4.19591 85.0085 1.28525 92.5435C-0.694176 97.6656 -0.329781 103.483 0.493484 108.802C1.1278 112.911 3.39964 116.71 3.79103 120.791C4.94719 132.901 -13.6864 136.983 -25.2031 136.265C-31.5822 135.866 -40.9395 135.511 -46.3604 139.346C-54.0532 144.791 -57.7151 155.399 -64.7871 161.714C-72.5653 168.661 -87.2086 175.465 -97.875 172.815V179.991H178.646V120.787V120.796Z" fill="#ACB4FF"/>
</g>
<g opacity="0.58">
<path d="M158.487 34.7163C157.929 33.317 156.566 32.3302 154.965 32.3302C154.074 32.3302 153.26 32.6352 152.616 33.1465C152.391 31.6619 151.105 30.5227 149.553 30.5227C148.86 30.5227 148.226 30.7514 147.708 31.1327C147.299 29.231 145.607 27.8047 143.578 27.8047C141.316 27.8047 139.471 29.5808 139.363 31.8144C139.03 31.6933 138.675 31.6261 138.301 31.6261C137.177 31.6261 136.192 32.2271 135.647 33.1241C135.197 32.9895 134.721 32.9133 134.23 32.9133C132.692 32.9133 131.324 33.6175 130.42 34.7208H158.483L158.487 34.7163Z" fill="white"/>
<path d="M69.3545 44.3728C68.7742 43.6193 67.8609 43.1304 66.8307 43.1304C66.4528 43.1304 66.0929 43.1977 65.7555 43.3188C65.5216 42.8972 65.0717 42.6146 64.5544 42.6146C64.4014 42.6146 64.2575 42.6415 64.1225 42.6864C63.9111 41.5696 62.9303 40.7263 61.7517 40.7263C61.2748 40.7263 60.834 40.8654 60.4561 41.1031C59.8712 39.6499 58.4496 38.6228 56.7851 38.6228C55.1206 38.6228 53.636 39.6948 53.0782 41.1973C52.6643 40.973 52.192 40.8474 51.6926 40.8474C50.4779 40.8474 49.4387 41.5875 49.0024 42.637C48.7414 42.5922 48.4715 42.5653 48.1971 42.5653C46.6586 42.5653 45.291 43.2694 44.3867 44.3728H69.359H69.3545Z" fill="white"/>
<path d="M89.9045 61.8606C89.0003 60.4837 87.4392 59.5777 85.6667 59.5777C84.749 59.5777 83.8898 59.8244 83.1475 60.2505C82.3872 59.4207 81.2985 58.8914 80.0794 58.8914C79.544 58.8914 79.0312 58.9946 78.5633 59.1785C78.4238 57.0211 76.6289 55.3078 74.429 55.3078C73.6822 55.3078 72.9849 55.5051 72.3821 55.8505C71.4778 53.9398 69.5344 52.6167 67.2761 52.6167C64.3969 52.6167 62.0261 54.7651 61.6752 57.5414C60.3256 57.5594 59.1559 58.3308 58.5711 59.4521C58.5216 59.4521 58.4721 59.4431 58.4226 59.4431C56.3667 59.4431 54.5358 60.385 53.3301 61.8561H89.9L89.9045 61.8606Z" fill="white"/>
</g>
<path d="M49.6189 127.86H81.8071C82.0365 127.38 82.1714 126.846 82.1714 126.277C82.1714 124.254 80.5249 122.612 78.496 122.612C78.3386 122.612 78.1901 122.626 78.0371 122.644C77.6143 121.558 76.5616 120.787 75.3199 120.787C75.1445 120.787 74.969 120.805 74.8026 120.836C74.8026 120.746 74.8161 120.657 74.8161 120.567C74.8161 117.607 72.4093 115.203 69.4356 115.203C68.6259 115.203 67.8656 115.387 67.1773 115.705C66.7229 112.418 63.8977 109.879 60.4742 109.879C57.964 109.879 55.7776 111.242 54.6079 113.265C53.6902 112.637 52.579 112.27 51.3779 112.27C48.3233 112.27 45.831 114.66 45.6645 117.665C44.8953 117.809 44.1845 118.114 43.5681 118.549C42.8843 118.194 42.1061 117.988 41.2783 117.988C38.5386 117.988 36.3162 120.204 36.3162 122.935C36.3162 122.976 36.3207 123.016 36.3207 123.056C34.7372 123.464 33.5675 124.895 33.5675 126.6C33.5675 127.044 33.6485 127.465 33.797 127.86H49.6099H49.6189Z" fill="#99A1F2"/>
<path d="M201.063 75.3162H128.976V122.778H201.063V75.3162Z" fill="#BFC4F8"/>
<path d="M167.602 38.5691H89.9002L54.7114 75.3161H132.408L167.602 38.5691Z" fill="#C2C7F6"/>
<path d="M128.976 75.3162H61.6484V122.778H128.976V75.3162Z" fill="#CED3FF"/>
<path d="M94.9972 38.5691L59.8084 75.3161H130.298L95.1097 38.5691H94.9972Z" fill="#CED3FF"/>
<path d="M94.9972 41.8208H95.1097L127.185 75.3161H130.298L95.1097 38.5691H94.9972L59.8084 75.3161H62.9215L94.9972 41.8208Z" fill="#99A1F2"/>
<path d="M89.9002 38.5691H167.602L202.79 75.3161H125.089L89.9002 38.5691Z" fill="#FEFFFF"/>
<path d="M95.1097 38.5691H172.811L208 75.3161H130.298L95.1097 38.5691Z" fill="#ACB4FF"/>
<path d="M98.9066 61.2505H89.9497V71.97H98.9066V61.2505Z" fill="#EBEDFF" stroke="white" stroke-width="2.72" stroke-miterlimit="10"/>
<path d="M94.4259 61.2505V71.97" stroke="white" stroke-width="2.72" stroke-miterlimit="10"/>
<path d="M89.9497 66.5474H98.9066" stroke="white" stroke-width="2.72" stroke-miterlimit="10"/>
<path d="M79.6387 102.604H67.6002V86.6367C67.6002 83.3221 70.2949 80.6355 73.6194 80.6355C76.944 80.6355 79.6387 83.3221 79.6387 86.6367V102.604Z" fill="#EBEDFF" stroke="white" stroke-width="2.72" stroke-miterlimit="10"/>
<path d="M73.6194 80.6355V102.604" stroke="white" stroke-width="2.72" stroke-miterlimit="10"/>
<path d="M67.6002 88.1975H79.6387" stroke="white" stroke-width="2.72" stroke-miterlimit="10"/>
<path d="M67.6002 95.3154H79.6387" stroke="white" stroke-width="2.72" stroke-miterlimit="10"/>
<path d="M81.4202 101.927H65.8142V104.622H81.4202V101.927Z" fill="#C3CAFE"/>
<path d="M81.4202 103.878H65.8142V104.622H81.4202V103.878Z" fill="#99A1F2"/>
<path d="M123.024 102.604H110.986V86.6367C110.986 83.3221 113.68 80.6355 117.005 80.6355C120.329 80.6355 123.024 83.3221 123.024 86.6367V102.604Z" fill="#EBEDFF" stroke="white" stroke-width="2.72" stroke-miterlimit="10"/>
<path d="M117.005 80.6355V102.604" stroke="white" stroke-width="2.72" stroke-miterlimit="10"/>
<path d="M110.986 88.1975H123.024" stroke="white" stroke-width="2.72" stroke-miterlimit="10"/>
<path d="M110.986 95.3154H123.024" stroke="white" stroke-width="2.72" stroke-miterlimit="10"/>
<path d="M124.81 101.927H109.204V104.622H124.81V101.927Z" fill="#C3CAFE"/>
<path d="M124.81 103.878H109.204V104.622H124.81V103.878Z" fill="#99A1F2"/>
<path d="M104.899 81.2812H85.7209V122.778H104.899V81.2812Z" fill="#ACB4FF"/>
<path d="M103.045 83.1335H87.5834V122.778H103.045V83.1335Z" fill="#99A1F2"/>
<path d="M102.114 84.062H88.5101V122.778H102.114V84.062Z" fill="#ACB4FF"/>
<path d="M99.8468 104.398C100.503 104.398 101.034 103.868 101.034 103.214C101.034 102.56 100.503 102.03 99.8468 102.03C99.1909 102.03 98.6592 102.56 98.6592 103.214C98.6592 103.868 99.1909 104.398 99.8468 104.398Z" fill="#99A1F2"/>
<g opacity="0.28">
<path d="M168.155 92.5032H163.584V94.0954H168.155V92.5032Z" fill="#979EE7"/>
<path d="M173.508 92.5032H170.688V94.0954H173.508V92.5032Z" fill="#979EE7"/>
<path d="M157.421 104.434H152.976V106.026H157.421V104.434Z" fill="#979EE7"/>
<path d="M144.658 87.2781H141.838V88.8703H144.658V87.2781Z" fill="#979EE7"/>
<path d="M177.404 117.427H174.584V119.019H177.404V117.427Z" fill="#979EE7"/>
<path d="M164.997 79.8147H161.232V81.4069H164.997V79.8147Z" fill="#979EE7"/>
<path d="M171.43 90.1978H166.859V91.79H171.43V90.1978Z" fill="#979EE7"/>
<path d="M144.604 113.193H140.034V114.786H144.604V113.193Z" fill="#979EE7"/>
<path d="M138.869 113.193H136.048V114.786H138.869V113.193Z" fill="#979EE7"/>
<path d="M142.715 110.888H138.144V112.48H142.715V110.888Z" fill="#979EE7"/>
</g>
<path d="M103.711 43.0811H170.719" stroke="#99A1F2" stroke-width="1.03" stroke-miterlimit="10"/>
<path d="M110.801 49.9119H177.809" stroke="#99A1F2" stroke-width="1.03" stroke-miterlimit="10"/>
<path d="M117.891 56.7429H184.899" stroke="#99A1F2" stroke-width="1.03" stroke-miterlimit="10"/>
<path d="M124.981 63.5737H191.994" stroke="#99A1F2" stroke-width="1.03" stroke-miterlimit="10"/>
<path d="M132.075 70.4048H199.084" stroke="#99A1F2" stroke-width="1.03" stroke-miterlimit="10"/>
<path d="M172.69 124.989H57.874V127.86H172.69V124.989Z" fill="#7C84D5"/>
<path d="M172.69 122.778H61.6484V124.989H172.69V122.778Z" fill="#B5BEFF"/>
<path d="M149.359 127.86H187.639C188.363 126.904 188.8 125.716 188.8 124.424C188.8 121.697 186.879 119.419 184.319 118.854C184.188 116.005 181.84 113.736 178.952 113.736C177.242 113.736 175.717 114.534 174.732 115.777C173.837 115.194 172.766 114.853 171.615 114.853C171.273 114.853 170.944 114.889 170.62 114.943C169.869 112.027 167.224 109.874 164.066 109.874C160.642 109.874 157.817 112.408 157.363 115.7C156.674 115.382 155.914 115.198 155.104 115.198C152.135 115.198 149.724 117.598 149.724 120.562C149.724 120.796 149.742 121.02 149.773 121.244C149.692 121.24 149.611 121.231 149.53 121.231C148.433 121.231 147.479 121.836 146.98 122.729C146.683 122.653 146.368 122.603 146.044 122.603C144.015 122.603 142.368 124.245 142.368 126.268C142.368 126.837 142.503 127.371 142.733 127.851H149.359V127.86Z" fill="#EEF0FF"/>
<path d="M180.324 127.86H162.316C161.974 127.411 161.771 126.851 161.771 126.245C161.771 124.962 162.676 123.891 163.881 123.626C163.944 122.285 165.046 121.217 166.405 121.217C167.21 121.217 167.926 121.594 168.389 122.177C168.812 121.904 169.316 121.742 169.856 121.742C170.017 121.742 170.17 121.76 170.323 121.787C170.679 120.415 171.92 119.401 173.405 119.401C175.016 119.401 176.343 120.594 176.559 122.141C176.883 121.993 177.242 121.908 177.62 121.908C179.019 121.908 180.153 123.038 180.153 124.433C180.153 124.541 180.144 124.649 180.131 124.756C180.167 124.756 180.207 124.752 180.243 124.752C180.76 124.752 181.21 125.034 181.444 125.456C181.584 125.42 181.732 125.398 181.885 125.398C182.839 125.398 183.617 126.169 183.617 127.124C183.617 127.393 183.554 127.645 183.446 127.869H180.328L180.324 127.86Z" fill="#CED3FF"/>
<path d="M30.3465 127.86H54.356C54.8104 127.259 55.0848 126.514 55.0848 125.707C55.0848 123.998 53.8791 122.567 52.2731 122.213C52.1921 120.428 50.7166 119.002 48.9081 119.002C47.8329 119.002 46.8792 119.504 46.2628 120.284C45.7005 119.921 45.0302 119.706 44.3104 119.706C44.099 119.706 43.8875 119.728 43.6851 119.764C43.2127 117.939 41.5572 116.584 39.5733 116.584C37.4274 116.584 35.6549 118.176 35.3715 120.24C34.9396 120.042 34.4628 119.926 33.9544 119.926C32.092 119.926 30.5804 121.433 30.5804 123.29C30.5804 123.433 30.5939 123.577 30.6119 123.72C30.5624 123.72 30.5129 123.711 30.4589 123.711C29.7706 123.711 29.1723 124.092 28.8619 124.653C28.673 124.604 28.4795 124.577 28.2771 124.577C27.0039 124.577 25.9692 125.608 25.9692 126.878C25.9692 127.232 26.0547 127.568 26.1987 127.869H30.3555L30.3465 127.86Z" fill="#CED3FF"/>
<path d="M165.89 148.787C166.502 145.827 168.23 144.158 170.668 142.409C172.548 141.059 174.879 139.803 175.922 137.614C178.221 132.779 173.696 130.761 171.703 127.218C169.606 123.49 171.482 119.221 170.434 115.301C169.818 113.004 168.648 112.632 166.75 111.542C165.422 110.779 164.046 109.86 163.025 108.703C161.563 107.052 160.613 104.908 158.414 104.222C154.455 102.984 152.462 107.169 153.334 110.591C154.212 114.031 156.164 116.377 154.774 120.005C154.072 121.84 153.191 123.405 153.784 125.383C154.369 127.343 155.908 128.77 157.433 130.052C160.397 132.551 162.521 134.493 162.345 138.471C162.224 141.283 161.9 143.885 163.646 146.302C164.338 147.257 165.18 147.921 165.899 148.782L165.89 148.787Z" fill="#99A1F2"/>
<path d="M164.932 147.966C164.932 147.966 169.363 130.801 159.237 109.429" stroke="#7C84D5" stroke-width="0.52" stroke-miterlimit="10"/>
<path d="M165.598 132.053C165.598 132.053 162.201 128.249 157.356 125.944" stroke="#7C84D5" stroke-width="0.52" stroke-miterlimit="10"/>
<path d="M164.608 125.468C164.608 125.468 165.243 120.943 167.901 118.185" stroke="#7C84D5" stroke-width="0.52" stroke-miterlimit="10"/>
<path d="M162.557 117.736C162.557 117.736 158.998 113.533 155.836 111.479" stroke="#7C84D5" stroke-width="0.52" stroke-miterlimit="10"/>
<path d="M167.488 152.187C167.488 152.187 165.013 132.425 139.465 109.636" stroke="#7C84D5" stroke-width="0.88" stroke-miterlimit="10"/>
<path d="M144.85 114.807C144.85 114.807 142.902 112.174 145.858 109.474C145.858 109.474 148.206 112.287 144.85 114.807Z" fill="#7C84D5"/>
<path d="M148.463 118.61C148.463 118.61 146.281 115.659 149.592 112.636C149.592 112.636 152.224 115.789 148.463 118.61Z" fill="#7C84D5"/>
<path d="M151.774 122.351C151.774 122.351 149.421 119.171 152.988 115.91C152.988 115.91 155.827 119.31 151.774 122.351Z" fill="#7C84D5"/>
<path d="M155.368 126.944C155.368 126.944 152.678 123.307 156.758 119.579C156.758 119.579 160.006 123.468 155.368 126.944Z" fill="#7C84D5"/>
<path d="M158.396 131.281C158.396 131.281 156.052 126.778 161.23 123.356C161.23 123.356 164.15 128.231 158.396 131.281Z" fill="#7C84D5"/>
<path d="M146.861 116.834C146.861 116.834 144.414 114.098 140.765 116.704C140.765 116.704 143.321 119.92 146.861 116.834Z" fill="#7C84D5"/>
<path d="M150.568 120.746C150.568 120.746 147.774 118.077 144.162 121.113C144.162 121.113 147.109 124.28 150.568 120.746Z" fill="#7C84D5"/>
<path d="M153.672 124.361C153.672 124.361 150.474 121.719 146.843 125.244C146.843 125.244 150.24 128.406 153.672 124.361Z" fill="#7C84D5"/>
<path d="M141.949 111.829C141.949 111.829 138.345 112.547 137 108.277C137 108.277 140.981 107.236 141.949 111.829Z" fill="#7C84D5"/>
<path opacity="0.22" d="M14.5789 66.6553C20.3642 63.4618 30.6932 55.0252 27.7466 47.1762C25.5512 41.3275 17.3366 42.8884 15.2357 47.7862C14.0481 50.5535 14.0526 53.5272 12.478 56.0792C11.2499 58.0751 9.87329 59.0933 9.19848 61.3179C8.31674 64.2064 10.9305 70.3645 14.5789 66.6553Z" fill="#ACB4FF"/>
<path opacity="0.22" d="M119.645 24.4409C119.798 25.0015 119.708 25.6429 119.56 26.3202C119.353 27.2486 118.53 28.0963 117.931 28.6839C116.694 29.9038 115.48 30.0025 113.927 30.2761C112.308 30.5631 110.81 31.1193 109.28 31.7831C107.697 32.4693 105.807 32.3527 104.165 31.958C102.982 31.6755 101.538 30.3837 101.192 28.9799C100.976 28.1142 101.021 26.8404 101.529 26.1363C102.663 24.5575 104.791 23.9655 106.446 23.9116C108.421 23.8444 110.436 24.266 112.389 23.7905C113.878 23.4272 115.313 22.7589 116.856 22.7679C117.639 22.7724 118.449 22.9563 119.083 23.5259C119.384 23.795 119.56 24.1 119.65 24.4364L119.645 24.4409Z" fill="#ACB4FF"/>
<path d="M23.8278 101.581H13.2109C13.2109 101.581 10.4442 104.411 11.7083 112.53C13.0039 120.85 12.4956 130.551 11.9647 145.505H15.3118L18.9737 114.611L20.6787 145.505H23.5849C23.5849 145.505 24.1922 135.53 24.75 126.703C25.4833 115.091 25.3079 103.487 23.8278 101.581Z" fill="#253147"/>
<path d="M15.0014 101.694C15.0014 101.694 13.6833 107.143 14.0027 117.477C14.3266 127.811 13.3099 145.397 13.3099 145.397" stroke="#1C2635" stroke-width="0.38" stroke-miterlimit="10"/>
<path d="M14.3401 74.9215C13.7147 75.5674 13.3638 76.5182 13.2604 77.3435C13.1254 78.4379 13.5798 79.3035 13.3728 80.3934C13.1029 81.8152 11.6318 82.5732 11.218 83.9322C10.8311 85.206 11.4789 86.2511 11.9153 87.4082C12.1357 87.9913 12.3021 88.5654 12.3201 89.1799C12.3471 90.0052 12.5001 90.4447 13.2199 91.0053C14.3535 91.8889 15.9011 91.705 16.6839 90.5299C17.0888 89.9199 17.1877 89.2292 17.8625 88.7942C18.3754 88.4623 19.0052 88.3905 19.617 88.3681C20.8587 88.3277 22.2892 88.534 23.1665 87.5293C23.6658 86.9552 23.9403 86.1075 23.7603 85.372C23.5939 84.6813 23.0225 84.0578 22.6986 83.4209C22.1498 82.3355 22.1453 81.286 22.1498 80.1109C22.1588 78.6038 21.8124 76.8322 20.6832 75.6481C19.86 74.787 18.7083 74.3071 17.4936 74.1007C16.1935 73.881 15.2128 74.02 14.3446 74.917L14.3401 74.9215Z" fill="#9E3834"/>
<path d="M27.0399 93.3467C27.0399 93.3467 28.0566 96.7958 28.4345 97.9305C28.9113 99.3613 31.4441 106.358 31.8355 106.807C32.2314 107.255 33.6574 108.713 33.6574 109.305C33.6574 109.897 32.6947 110.861 32.3303 110.973C31.9659 111.086 30.5084 109.282 30.2654 108.04C29.7886 105.623 27.0714 101.559 25.5418 98.7154C24.4666 96.715 23.5084 94.3065 23.5084 94.3065L27.0444 93.3467H27.0399Z" fill="#EB855D"/>
<path d="M23.117 85.2373C23.117 85.2373 25.0154 86.0715 27.5662 93.5842C27.5662 93.5842 25.9872 95.6653 23.8098 95.9389C23.8098 95.9389 19.0007 88.5204 23.117 85.2373Z" fill="#B53C3D"/>
<path d="M24.7321 92.1893C24.6601 93.4227 23.5039 94.5261 23.5084 96.1273C23.5084 98.2847 24.7815 100.586 23.8503 101.568C23.7963 101.626 23.7198 101.675 23.6164 101.72C22.3522 102.308 17.5791 102.209 14.9294 101.913C14.0881 101.819 13.4628 101.707 13.2289 101.59C12.0637 101.003 13.3369 97.8631 12.9635 94.7055C12.8825 94.0103 12.7025 93.2568 12.5001 92.4809C12.3246 91.8171 12.1267 91.1398 11.9513 90.476C11.4069 88.3859 11.083 86.4483 12.3246 85.5558C14.5605 83.9456 18.0695 83.7393 18.0695 83.7393C21.0701 83.8155 21.583 84.2551 22.9686 85.1207C24.1697 85.8787 24.885 89.5879 24.7365 92.1893H24.7321Z" fill="#D94849"/>
<path d="M23.6119 101.72C22.3477 102.308 17.5746 102.209 14.9249 101.913C14.0836 101.819 13.4583 101.707 13.2244 101.59C12.0592 101.003 13.3323 97.8631 12.959 94.7056C12.878 94.0104 12.698 93.2569 12.4956 92.4809C12.851 91.8575 13.3278 91.3417 13.9577 90.9963C13.9577 90.9963 12.2887 100.352 15.8381 100.909C19.1132 101.42 21.3085 102.227 23.6164 101.72H23.6119Z" fill="#B53C3D"/>
<path d="M16.8683 79.7432C16.8683 79.7432 16.7559 83.8919 16.7649 84.0803C16.7784 84.3853 17.1158 86.3319 19.8195 87.6819C19.8195 87.6819 20.8092 86.287 20.4718 84.022C20.6382 81.3668 20.6472 79.8149 20.6472 79.8149L16.8683 79.7432Z" fill="#F97F5F"/>
<path d="M22.5277 76.729C22.5277 76.729 22.9326 78.254 22.7121 80.0481C22.5007 81.8018 21.286 83.6496 19.86 83.6496C17.9705 83.6496 16.9853 81.5102 16.8413 80.2768C16.8413 80.2768 16.2745 80.214 16.0361 79.5009C15.8381 78.9088 16.4949 78.5321 16.9358 78.8774C16.9358 78.8774 17.0483 76.1684 18.2719 75.4238C19.4956 74.6838 21.8214 76.2088 22.5277 76.7245V76.729Z" fill="#FF8B66"/>
<path d="M8.39278 110.274C8.39278 111.229 7.68648 112.382 7.57402 113.193C7.46155 114.01 8.24882 115.553 8.24882 115.553C8.24882 115.553 8.78417 115.916 9.18005 115.889C9.57594 115.862 8.92813 115.131 8.98211 114.624C9.04059 114.117 9.40499 112.884 9.57144 112.772C9.74239 112.66 9.74239 113.642 10.0798 113.754C10.4172 113.866 10.4487 112.516 10.5657 112.238C10.6826 111.96 10.5297 110.471 10.4172 109.655C10.3047 108.838 12.671 93.5349 12.671 93.5349C12.671 93.5349 10.9615 93.0281 10.1158 92.6514C9.47247 93.5484 8.94612 96.7015 8.79766 98.3789C8.46026 102.214 8.38829 109.744 8.38829 110.274H8.39278Z" fill="#EB855D"/>
<path d="M11.5689 86.2824C11.5689 86.2824 9.45897 88.6147 8.6897 95.3335C8.6897 95.3335 10.5702 96.8001 13.0174 96.1229C13.0174 96.1229 14.6865 90.3101 14.3626 88.1796C14.0386 86.0492 12.1987 85.2373 11.5644 86.2779L11.5689 86.2824Z" fill="#E5535A"/>
<path d="M90.6289 101.833C90.6289 101.833 92.6714 114.256 91.3352 145.392H87.6373C87.6373 145.392 84.6322 124.81 83.3996 116.207L82.4008 145.392H78.8064C78.8064 145.392 75.5448 109.758 77.3668 101.833H90.6289Z" fill="#253147"/>
<path d="M90.9978 104.99C90.7909 102.837 90.6289 101.833 90.6289 101.833H77.3623C77.1688 102.68 77.0294 103.846 76.9439 105.246C76.9529 105.246 84.5692 107.722 90.9978 104.986V104.99Z" fill="#1C2635"/>
<path d="M83.3951 115.737L82.4368 109.673C82.4368 109.673 82.8012 115.894 83.2196 120.85L83.3951 115.737Z" fill="#1C2635"/>
<path d="M68.176 98.2266C68.176 98.2266 67.2087 98.8455 66.5025 99.294C65.8861 99.6842 64.6355 100.424 64.3251 100.635C64.3251 100.635 61.9723 101.747 61.9993 102.138C62.0487 102.846 63.5918 103.618 65.1258 103.156C65.8141 102.945 66.7094 102.182 66.8893 101.81C67.2582 101.039 69.2557 99.9623 69.2557 99.9623L68.176 98.231V98.2266Z" fill="#F97F5F"/>
<path d="M59.9793 98.7244C59.9793 98.7244 61.257 99.7335 61.6394 99.7649C62.0217 99.7963 62.5166 99.8008 62.782 99.8367C63.0475 99.8771 63.5243 100.308 63.8797 100.357C64.2351 100.406 64.4825 100.532 64.4825 100.532C64.4825 100.532 63.8482 100.918 63.7762 101.03C63.6998 101.151 64.3161 101.433 64.757 101.55C65.1933 101.662 66.5384 102.133 66.6104 102.308C66.6824 102.483 65.3823 103.29 64.4331 103.407C63.5738 103.515 62.1612 102.891 61.9183 102.712C61.6754 102.532 61.4234 101.985 60.9376 101.703C60.4517 101.42 58.8232 100.702 58.8232 100.702L59.9838 98.7244H59.9793Z" fill="#FF8B66"/>
<path d="M66.5025 99.2939C66.5025 99.2939 65.4722 99.8008 64.3116 99.7783C63.9787 99.7739 63.1554 100.433 63.0519 100.523C62.9485 100.613 63.2184 100.873 63.6413 100.707C64.0642 100.536 64.3881 100.46 64.487 100.474C64.7749 100.518 65.8591 100.411 65.8591 100.411L66.5025 99.2939Z" fill="#F97F5F"/>
<path d="M62.2287 102.887C62.2287 102.887 62.1477 102.277 62.2287 102.183C62.3097 102.088 63.8617 102.918 64.1227 102.887C64.3881 102.855 64.3116 103.362 64.1631 103.465C64.0147 103.568 62.4716 103.277 62.2242 102.887H62.2287Z" fill="#F97F5F"/>
<path d="M80.4619 79.3304C81.2357 80.5504 80.6868 84.7754 80.3269 87.4979C79.8006 91.4673 79.5847 93.3197 78.8379 94.5665C76.692 98.1412 69.5436 100.671 68.0455 101.478C67.6136 101.016 66.7409 99.8456 66.381 99.0696C66.381 99.0696 72.1123 94.6697 73.9613 91.8575C73.9613 91.8575 75.7383 84.7261 76.3816 82.0484C77.2633 78.3706 79.8636 78.384 80.4619 79.3349V79.3304Z" fill="#405584"/>
<path d="M66.381 99.0653L67.7531 97.769C67.7531 97.769 68.4324 99.6214 69.6695 100.823L68.0455 101.478C68.0455 101.478 66.8893 100.613 66.381 99.0697V99.0653Z" fill="#596B99"/>
<path d="M36.2712 101.833C36.2712 101.833 34.2288 114.256 35.5649 145.392H39.2628C39.2628 145.392 42.268 124.81 43.5006 116.207L44.4993 145.392H48.0938C48.0938 145.392 51.3553 109.758 49.5334 101.833H36.2712Z" fill="#253147"/>
<path d="M43.5051 115.737L44.4633 109.673C44.4633 109.673 44.0989 115.894 43.6806 120.85L43.5051 115.737Z" fill="#1C2635"/>
<path d="M38.4216 104.761C38.4216 104.761 37.2384 123.24 37.4094 145.397" stroke="#1C2635" stroke-width="0.38" stroke-miterlimit="10"/>
<path d="M38.2371 108.04C38.2371 108.04 41.8226 106.91 41.5482 104.38" stroke="#1C2635" stroke-width="0.38" stroke-miterlimit="10"/>
<path d="M46.4383 79.3304C45.669 80.5504 46.2133 84.7754 46.5732 87.4979C47.0996 91.4673 47.3155 93.3197 48.0623 94.5665C50.2082 98.1412 57.3566 100.671 58.8547 101.478C59.2865 101.016 60.2717 99.6258 60.6271 98.8499C60.6271 98.8499 54.7878 94.6742 52.9389 91.8575C52.9389 91.8575 50.9999 84.762 50.3566 82.0798C49.4749 78.402 47.0366 78.3841 46.4338 79.3349L46.4383 79.3304Z" fill="#FB9823"/>
<path d="M43.6536 77.626C43.6536 77.626 48.6381 78.1015 49.6413 80.1916C51.1754 83.3895 50.4961 90.3953 50.1137 97.3877C49.9877 99.72 51.5983 104.021 49.8843 104.254C49.8843 104.254 41.6156 106.726 36.0148 103.873C34.7371 103.052 36.0418 99.2984 35.8573 96.6925C35.3669 89.7181 34.3278 82.035 35.8123 80.066C37.6613 77.6126 43.1992 77.5767 43.6536 77.6216V77.626Z" fill="#FFAA3F"/>
<path d="M36.0148 103.878C34.7371 103.057 36.0417 99.3028 35.8573 96.6969C35.4209 90.467 34.5437 83.6675 35.4209 80.8867C37.0495 81.7434 38.6375 82.6628 38.624 82.9903C38.624 82.9903 38.795 91.5838 37.8367 94.728C36.8785 97.8721 35.9248 102.402 36.82 104.237C36.5456 104.124 36.2757 104.008 36.0148 103.873V103.878Z" fill="#FB9823"/>
<path d="M41.2872 69.4271C41.2872 69.4271 39.9601 68.9024 39.4563 70.0147C38.7995 71.4634 40.6934 74.7645 41.4582 76.9084C41.4582 76.9084 43.0912 70.6695 41.2827 69.4271H41.2872Z" fill="#742F28"/>
<path d="M41.8001 71.8853C41.8001 71.8853 41.2018 76.949 41.0983 77.7788C41.0218 78.3932 41.9171 80.1649 43.946 79.9406C45.3451 79.7881 45.3001 77.8909 45.2596 77.3033C45.2146 76.7158 45.2146 73.029 45.2146 73.029L41.8001 71.8897V71.8853Z" fill="#F97F5F"/>
<path d="M47.3245 70.2571C47.3245 70.2571 48.2737 77.2944 45.1201 77.2944C42.2769 77.2944 41.4897 74.2713 41.5347 73.778C41.5347 73.778 40.7924 73.4595 40.7024 72.9348C40.6169 72.41 41.2917 72.0602 41.7326 72.41C41.7326 72.41 41.8856 70.5576 43.1092 69.8131C44.3329 69.073 46.6182 69.7413 47.3245 70.2571Z" fill="#FF8B66"/>
<path d="M42.6549 70.7997C42.6549 70.7997 45.0392 69.3914 47.3245 70.257C47.3245 70.257 50.5996 68.9429 49.124 66.781C48.2917 65.5611 46.8117 66.8797 45.3811 66.6061C44.2654 66.3953 43.5546 67.7139 42.3399 67.6736C40.9768 67.6287 39.9916 68.3508 40.0636 69.2434C40.2166 71.1182 41.7281 72.4054 41.7281 72.4054C41.7281 72.4054 41.8811 72.7328 41.8136 73.1051C41.8136 73.1051 43.1047 72.4054 42.6504 70.7997H42.6549Z" fill="#742F28"/>
<path d="M32.3753 104.761C32.3753 104.761 32.2674 106.775 31.9345 107.296C31.597 107.816 31.1517 108.412 31.1157 109.283C31.0932 109.888 31.2686 110.036 31.5746 110.619C31.6825 110.825 32.2089 111.202 32.6138 111.269C33.1941 111.368 33.8149 111.337 33.9499 111.09C34.1793 110.668 34.0713 109.179 34.0713 109.179C34.0713 109.179 34.2918 109.884 34.6967 109.955C35.097 110.027 34.8271 109.543 34.7416 109.39C34.5797 109.112 34.4402 108.614 34.4537 108.385C34.4672 108.157 33.9364 107.771 33.9094 107.524C33.8824 107.278 34.2918 105.268 34.2918 105.268L32.3753 104.761Z" fill="#FF8B66"/>
<path d="M36.2622 79.4472C35.0971 80.2993 33.1041 85.6008 31.939 92.1447C31.6421 93.8221 31.4981 105.174 31.6151 106.152C31.768 107.439 34.8091 107.394 34.8856 106.376C35.133 103.026 36.0868 94.616 36.5411 92.943C37.2924 90.1936 38.2416 86.7804 38.9344 84.1117C39.8522 80.564 37.1665 78.7789 36.2577 79.4472H36.2622Z" fill="#FFB64B"/>
<path d="M83.2466 77.626C83.2466 77.626 78.262 78.1015 77.2588 80.1916C75.7248 83.3895 76.4041 90.3953 76.7865 97.3877C76.9124 99.72 75.3064 104.021 77.0204 104.254C77.0204 104.254 85.289 106.726 90.8899 103.873C92.1675 103.052 90.8629 99.2984 91.0473 96.6925C91.5377 89.7181 92.5769 82.035 91.0923 80.066C89.2433 77.6126 83.7054 77.5767 83.2511 77.6216L83.2466 77.626Z" fill="#4A5F8E"/>
<path d="M90.8854 103.878C92.163 103.057 90.8584 99.3028 91.0428 96.6969C91.4792 90.467 92.3565 83.6675 91.4792 80.8867C89.8507 81.7434 88.2626 82.6628 88.2761 82.9903C88.2761 82.9903 88.1052 91.5838 89.0634 94.728C90.0216 97.8721 90.9753 102.402 90.0801 104.237C90.3545 104.124 90.6244 104.008 90.8854 103.873V103.878Z" fill="#405584"/>
<path d="M85.6983 68.5347C85.6983 68.5347 87.2549 68.6423 87.6463 69.7995C88.3841 71.9703 86.5036 75.4867 85.109 76.3703C85.109 76.3703 83.8899 69.7771 85.6938 68.5347H85.6983Z" fill="#442D24"/>
<path d="M85.1 71.885C85.1 71.885 85.5859 76.6483 85.6894 77.4735C85.7658 78.088 84.9831 80.1602 82.9542 79.9359C81.5551 79.7834 81.6001 77.8862 81.6405 77.2986C81.6855 76.7111 81.6855 73.0242 81.6855 73.0242L85.1 71.885Z" fill="#F97F5F"/>
<path d="M79.5756 70.2569C79.5756 70.2569 78.6264 77.2942 81.78 77.2942C84.6232 77.2942 85.4104 74.2711 85.3654 73.7778C85.3654 73.7778 85.9683 73.262 86.0538 72.7372C86.1392 72.2125 85.6039 72.06 85.1675 72.4098C85.1675 72.4098 85.4464 70.0013 84.2228 69.2567C82.9991 68.5122 79.6611 69.1222 79.5756 70.2569Z" fill="#FF8B66"/>
<path d="M84.9426 70.091C84.9426 70.091 81.5191 71.0015 79.5756 70.257C78.4779 69.8398 78.262 65.8884 80.8757 66.2338C84.2453 66.6778 85.8693 68.2117 86.0672 68.566C86.2652 68.9204 85.5319 70.2435 84.9471 70.091H84.9426Z" fill="#442D24"/>
<path d="M83.1476 69.4855C83.1476 69.4855 82.7877 70.9387 84.2048 71.5442C84.7851 71.7909 85.0235 73.1858 85.0235 73.1858C85.0235 73.1858 85.0955 72.5758 85.172 72.4053C85.2485 72.2349 86.1707 71.3737 86.1707 71.3737C86.1707 71.3737 86.985 69.7994 85.6983 69.3958C84.4117 68.9921 83.1476 69.481 83.1476 69.481V69.4855Z" fill="#442D24"/>
<path d="M82.6213 79.5278C82.7967 79.5592 83.422 80.0032 83.422 80.0032C83.422 80.0032 82.8192 81.1425 82.5133 81.2232C82.2074 81.3084 81.9015 80.0346 81.9015 79.9046C81.9015 79.7745 82.3873 79.483 82.6213 79.5233V79.5278Z" fill="#333A44"/>
<path d="M82.6213 79.5278L83.3816 81.0348C83.3816 81.0348 85.5589 79.7745 86.1663 77.8324L85.6804 77.4019C85.6804 77.4019 84.9966 79.0165 82.6213 79.5323V79.5278Z" fill="#596B99"/>
<path d="M81.6315 77.7114C81.6315 77.7114 81.6855 78.909 82.6213 79.5279L81.8835 80.6358C81.8835 80.6358 81.2806 79.2767 81.3886 77.9402L81.6315 77.7114Z" fill="#596B99"/>
<path d="M82.3063 80.6357L80.7858 94.9524L81.8295 96.4684L83.0216 95.1767L82.6617 80.6357H82.3063Z" fill="#333A44"/>
<path d="M95.9511 110.256L92.7914 110.857C92.2862 110.953 91.9547 111.439 92.051 111.943L92.3037 113.264C92.4 113.768 92.8876 114.098 93.3928 114.002L96.5525 113.402C97.0577 113.306 97.3892 112.82 97.2929 112.316L97.0402 110.995C96.944 110.491 96.4564 110.16 95.9511 110.256Z" stroke="#5E3C2D" stroke-width="1.41" stroke-miterlimit="10"/>
<path d="M100.663 112.145L87.3015 114.623C86.6347 114.747 86.1947 115.386 86.3187 116.051L87.9736 124.918C88.0977 125.583 88.7389 126.022 89.4057 125.898L102.767 123.42C103.434 123.296 103.874 122.657 103.75 121.992L102.095 113.124C101.971 112.46 101.33 112.021 100.663 112.145Z" fill="#5E3C2D"/>
<path d="M100.697 112.112L87.3357 114.591C86.6689 114.715 86.2289 115.354 86.353 116.019L88.0078 124.886C88.1319 125.551 88.7731 125.99 89.4399 125.866L102.801 123.388C103.468 123.264 103.908 122.625 103.784 121.96L102.129 113.092C102.005 112.427 101.364 111.989 100.697 112.112Z" fill="#5E3C2D"/>
<path d="M100.73 112.075L87.369 114.554C86.7022 114.677 86.2622 115.317 86.3862 115.981L88.0411 124.849C88.1652 125.514 88.8063 125.952 89.4732 125.829L102.834 123.35C103.501 123.226 103.941 122.587 103.817 121.922L102.162 113.055C102.038 112.39 101.397 111.951 100.73 112.075Z" fill="#5E3C2D"/>
<path d="M100.764 112.047L87.4032 114.526C86.7364 114.65 86.2964 115.289 86.4204 115.954L88.0753 124.821C88.1994 125.486 88.8405 125.925 89.5074 125.801L102.869 123.323C103.535 123.199 103.975 122.56 103.851 121.895L102.197 113.027C102.072 112.362 101.431 111.924 100.764 112.047Z" fill="#5E3C2D"/>
<path d="M100.798 112.01L87.4365 114.489C86.7697 114.612 86.3297 115.252 86.4537 115.916L88.1086 124.784C88.2327 125.449 88.8738 125.887 89.5407 125.764L102.902 123.285C103.569 123.161 104.009 122.522 103.885 121.857L102.23 112.99C102.106 112.325 101.465 111.886 100.798 112.01Z" fill="#5E3C2D"/>
<path d="M100.832 111.978L87.4707 114.457C86.8039 114.58 86.3639 115.22 86.4879 115.884L88.1428 124.752C88.2669 125.417 88.908 125.855 89.5749 125.732L102.936 123.253C103.603 123.13 104.043 122.49 103.919 121.825L102.264 112.958C102.14 112.293 101.499 111.854 100.832 111.978Z" fill="#5E3C2D"/>
<path d="M100.865 111.941L87.504 114.419C86.8372 114.543 86.3972 115.182 86.5212 115.847L88.1761 124.715C88.3002 125.379 88.9413 125.818 89.6082 125.694L102.969 123.216C103.636 123.092 104.076 122.453 103.952 121.788L102.297 112.921C102.173 112.256 101.532 111.817 100.865 111.941Z" fill="#5E3C2D"/>
<path d="M100.899 111.913L87.5382 114.392C86.8714 114.515 86.4314 115.155 86.5554 115.82L88.2103 124.687C88.3344 125.352 88.9755 125.791 89.6424 125.667L103.004 123.188C103.67 123.065 104.11 122.425 103.986 121.761L102.332 112.893C102.207 112.228 101.566 111.79 100.899 111.913Z" fill="#5E3C2D"/>
<path d="M100.933 111.876L87.5715 114.354C86.9047 114.478 86.4647 115.117 86.5887 115.782L88.2436 124.649C88.3677 125.314 89.0088 125.753 89.6757 125.629L103.037 123.151C103.704 123.027 104.144 122.388 104.02 121.723L102.365 112.855C102.241 112.191 101.6 111.752 100.933 111.876Z" fill="#5E3C2D"/>
<path d="M100.967 111.844L87.6057 114.322C86.9388 114.446 86.4988 115.085 86.6229 115.75L88.2778 124.617C88.4019 125.282 89.043 125.721 89.7099 125.597L103.071 123.119C103.738 122.995 104.178 122.356 104.054 121.691L102.399 112.823C102.275 112.159 101.634 111.72 100.967 111.844Z" fill="#5E3C2D"/>
<path d="M101 111.806L87.639 114.285C86.9721 114.409 86.5321 115.048 86.6562 115.713L88.3111 124.58C88.4351 125.245 89.0763 125.684 89.7432 125.56L103.104 123.081C103.771 122.958 104.211 122.318 104.087 121.654L102.432 112.786C102.308 112.121 101.667 111.683 101 111.806Z" fill="#5E3C2D"/>
<path d="M101.034 111.779L87.6732 114.257C87.0063 114.381 86.5663 115.02 86.6904 115.685L88.3453 124.552C88.4694 125.217 89.1105 125.656 89.7774 125.532L103.139 123.054C103.805 122.93 104.245 122.291 104.121 121.626L102.467 112.759C102.342 112.094 101.701 111.655 101.034 111.779Z" fill="#5E3C2D"/>
<path d="M101.068 111.741L87.7065 114.22C87.0396 114.344 86.5996 114.983 86.7237 115.648L88.3786 124.515C88.5027 125.18 89.1438 125.619 89.8106 125.495L103.172 123.016C103.839 122.893 104.279 122.253 104.155 121.589L102.5 112.721C102.376 112.056 101.735 111.618 101.068 111.741Z" fill="#5E3C2D"/>
<path d="M101.102 111.709L87.7407 114.188C87.0738 114.311 86.6338 114.951 86.7579 115.615L88.4128 124.483C88.5368 125.148 89.178 125.586 89.8448 125.463L103.206 122.984C103.873 122.86 104.313 122.221 104.189 121.556L102.534 112.689C102.41 112.024 101.769 111.585 101.102 111.709Z" fill="#5E3C2D"/>
<path d="M101.135 111.672L87.774 114.15C87.1071 114.274 86.6671 114.913 86.7912 115.578L88.4461 124.446C88.5702 125.11 89.2113 125.549 89.8782 125.425L103.239 122.947C103.906 122.823 104.346 122.184 104.222 121.519L102.567 112.652C102.443 111.987 101.802 111.548 101.135 111.672Z" fill="#5E3C2D"/>
<path d="M101.169 111.644L87.8082 114.123C87.1413 114.246 86.7013 114.886 86.8254 115.55L88.4803 124.418C88.6043 125.083 89.2455 125.521 89.9123 125.398L103.274 122.919C103.94 122.796 104.38 122.156 104.256 121.491L102.601 112.624C102.477 111.959 101.836 111.52 101.169 111.644Z" fill="#5E3C2D"/>
<path d="M101.203 111.607L87.8415 114.085C87.1746 114.209 86.7346 114.848 86.8587 115.513L88.5136 124.381C88.6376 125.045 89.2788 125.484 89.9456 125.36L103.307 122.882C103.974 122.758 104.414 122.119 104.29 121.454L102.635 112.587C102.511 111.922 101.87 111.483 101.203 111.607Z" fill="#5E3C2D"/>
<path d="M101.241 111.574L87.8801 114.052C87.2133 114.176 86.7732 114.815 86.8973 115.48L88.5522 124.348C88.6763 125.012 89.3174 125.451 89.9843 125.327L103.346 122.849C104.012 122.725 104.452 122.086 104.328 121.421L102.673 112.554C102.549 111.889 101.908 111.45 101.241 111.574Z" fill="#5E3C2D"/>
<path d="M101.27 111.537L87.909 114.016C87.2421 114.139 86.8021 114.779 86.9262 115.444L88.5811 124.311C88.7051 124.976 89.3463 125.415 90.0131 125.291L103.374 122.812C104.041 122.689 104.481 122.049 104.357 121.385L102.702 112.517C102.578 111.852 101.937 111.414 101.27 111.537Z" fill="#5E3C2D"/>
<path d="M101.309 111.509L87.9476 113.987C87.2807 114.111 86.8408 114.75 86.9648 115.415L88.6197 124.283C88.7438 124.948 89.3849 125.386 90.0518 125.263L103.413 122.784C104.08 122.66 104.52 122.021 104.396 121.356L102.741 112.489C102.617 111.824 101.976 111.385 101.309 111.509Z" fill="#5E3C2D"/>
<path d="M101.338 111.472L87.9764 113.951C87.3096 114.075 86.8696 114.714 86.9937 115.379L88.6485 124.246C88.7726 124.911 89.4138 125.35 90.0806 125.226L103.442 122.747C104.109 122.624 104.549 121.984 104.425 121.32L102.77 112.452C102.646 111.787 102.005 111.349 101.338 111.472Z" fill="#5E3C2D"/>
<path d="M101.376 111.439L88.0151 113.918C87.3482 114.042 86.9082 114.681 87.0323 115.346L88.6872 124.213C88.8112 124.878 89.4524 125.317 90.1192 125.193L103.481 122.714C104.147 122.591 104.587 121.951 104.463 121.287L102.808 112.419C102.684 111.754 102.043 111.316 101.376 111.439Z" fill="#5E3C2D"/>
<path d="M101.405 111.403L88.0439 113.881C87.3771 114.005 86.9371 114.644 87.0612 115.309L88.716 124.177C88.8401 124.842 89.4813 125.28 90.1481 125.157L103.509 122.678C104.176 122.554 104.616 121.915 104.492 121.25L102.837 112.383C102.713 111.718 102.072 111.279 101.405 111.403Z" fill="#5E3C2D"/>
<path d="M101.444 111.374L88.0826 113.853C87.4157 113.977 86.9757 114.616 87.0998 115.281L88.7547 124.148C88.8788 124.813 89.5199 125.252 90.1868 125.128L103.548 122.649C104.215 122.526 104.655 121.887 104.531 121.222L102.876 112.354C102.752 111.689 102.111 111.251 101.444 111.374Z" fill="#5E3C2D"/>
<path d="M101.444 111.374L88.0826 113.853C87.4157 113.977 86.9757 114.616 87.0998 115.281L88.7547 124.148C88.8788 124.813 89.5199 125.252 90.1868 125.128L103.548 122.649C104.215 122.526 104.655 121.887 104.531 121.222L102.876 112.354C102.752 111.689 102.111 111.251 101.444 111.374Z" fill="#8E533A"/>
<path d="M100.801 111.489L88.7225 113.73C88.2707 113.814 87.9725 114.247 88.0566 114.698L88.8581 118.992C88.9422 119.443 89.3766 119.74 89.8285 119.656L101.907 117.416C102.359 117.332 102.657 116.899 102.573 116.448L101.772 112.153C101.688 111.703 101.253 111.406 100.801 111.489Z" fill="#AE6546"/>
<path d="M95.9734 117.392C96.0049 117.558 95.8924 117.719 95.726 117.751C95.5595 117.782 95.3976 117.67 95.3661 117.504C95.3346 117.338 95.4471 117.177 95.6135 117.145C95.78 117.114 95.9419 117.226 95.9734 117.392Z" fill="#5E3C2D"/>
<path d="M94.5248 104.761C94.5248 104.761 94.6328 106.775 94.9657 107.296C95.3031 107.816 95.7485 108.412 95.7845 109.283C95.807 109.888 95.825 110.601 95.2986 110.924C95.1007 111.045 94.6868 111.202 94.2819 111.269C93.7016 111.368 93.0808 111.337 92.9458 111.09C92.7164 110.668 92.8243 109.179 92.8243 109.179C92.8243 109.179 92.6039 109.884 92.199 109.955C91.7986 110.027 92.0686 109.543 92.154 109.39C92.316 109.112 92.4554 108.614 92.4419 108.385C92.4284 108.157 92.9593 107.771 92.9863 107.524C93.0133 107.278 92.6039 105.268 92.6039 105.268L94.5203 104.761H94.5248Z" fill="#FF8B66"/>
<path d="M90.5749 79.5234C91.7401 80.3756 93.8005 85.6008 94.9612 92.1447C95.2581 93.8222 95.4021 105.174 95.2851 106.152C95.1321 107.439 92.2395 107.385 92.163 106.367C91.9156 103.017 90.8134 94.616 90.359 92.9431C89.6077 90.1937 88.3841 87.2514 87.6913 84.5827C86.7736 81.0349 89.6662 78.8551 90.5749 79.5234Z" fill="#596B99"/>
<path d="M91.8571 105.246L92.1405 106.775C92.1405 106.775 93.8905 107.699 95.2536 106.632L95.4605 105.026C95.4605 105.026 93.3417 105.829 91.8571 105.25V105.246Z" fill="#6175A3"/>
<path d="M16.9538 78.985C16.9538 78.985 17.0843 78.4154 17.4037 78.1597C17.948 77.7202 18.7578 77.2493 18.5238 76.1145C18.5238 76.1145 17.939 73.845 16.189 75.3161C15.0553 76.2715 16.9493 78.985 16.9493 78.985H16.9538Z" fill="#9E3834"/>
<path d="M15.8291 74.8228C15.8291 74.8228 16.9853 75.5046 18.3079 76.0294C18.3079 76.0294 19.1537 76.8546 20.7327 76.8322C22.7031 76.8053 22.7796 78.2764 22.7796 78.2764C22.7796 78.2764 24.2417 76.8367 23.4769 75.2355C22.7121 73.6343 20.9486 72.5713 18.9017 72.5713C16.9853 72.5713 15.3343 73.8765 15.8246 74.8273L15.8291 74.8228Z" fill="#9E3834"/>
<path d="M18.9737 114.611L19.6395 110.085C19.6395 110.085 19.761 115.135 19.1941 118.612L18.9737 114.611Z" fill="#1C2635"/>
</g>
<defs>
<clipPath id="clip0_237_16275">
<path d="M0 0H159C167.837 0 175 7.16344 175 16V110C175 118.837 167.837 126 159 126H0V0Z" fill="white"/>
</clipPath>
</defs>
</svg>
